<?xml version="1.0" encoding="utf-8" ?>
<?xml-stylesheet type="text/css" href="@import url(http://fonts.googleapis.com/css?family=Lato:400,900,400italic&subset=latin,latin-ext"?>
<svg baseProfile="full" height="572" version="1.1" width="600" xmlns="http://www.w3.org/2000/svg" xmlns:ev="http://www.w3.org/2001/xml-events" xmlns:xlink="http://www.w3.org/1999/xlink"><defs /><rect height="100%" style="fill: #EEEEEE;" width="100%" x="0" y="0" /><rect height="60" rx="10" ry="10" style="fill: #FFFFFF;" width="560" x="20" y="20" /><rect height="30" rx="10" ry="10" style="fill: #6755E3;" width="560" x="20" y="20" /><rect height="10" style="fill: #6755E3;" width="560" x="20" y="40" /><rect height="465.5" rx="10" ry="10" style="fill: #FFFFFF;" width="560" x="20" y="90" /><rect height="20" rx="10" ry="10" style="fill: #6755E3;" width="560" x="20" y="90" /><rect height="10" style="fill: #6755E3;" width="560" x="20" y="100" /><line style="stroke: #EEEEEE; stroke-opacity: 1; stroke-width:1px;" x1="290" x2="290" y1="110" y2="555.5" /><text style="font-size:18px; font-weight:700; font-family:'Roboto Condensed'; fill:#FFFFFF; fill-opacity:1.00;" x="30" y="43">2010's MC 51: Results</text><text style="font-size:14px; font-weight:300; font-family:'Roboto Condensed'; fill:#333333; fill-opacity:1.00;" x="30" y="70">Now Voting: Yqt1001 (10/20)</text><text style="font-size:12px; font-weight:300; font-family:'Roboto Condensed'; fill:#333333; fill-opacity:1.00; text-anchor: middle;" x="32" y="130">1.</text><text style="font-size:12px; font-weight:400; font-family:'Roboto Condensed'; fill:#333333; fill-opacity:1.00; text-anchor: end;" x="85" y="130">36</text><text style="font-size:12px; font-weight:300; font-family:'Roboto Condensed'; fill:#333333; fill-opacity:1.00;" x="90" y="130">Eva &amp; the Heartmaker - Give In</text><line style="stroke: #EEEEEE; stroke-opacity: 1; stroke-width:1px;" x1="90" x2="290" y1="135.5" y2="135.5" /><rect height="12" style="fill: #6755E3;" width="3" x="290" y="118" /><rect height="12" rx="3" ry="3" style="fill: #6755E3;" width="275.0" x="290" y="118" /><text style="font-size:12px; font-weight:300; font-family:'Roboto Condensed'; fill:#333333; fill-opacity:1.00; text-anchor: middle;" x="32" y="152">2.</text><text style="font-size:12px; font-weight:400; font-family:'Roboto Condensed'; fill:#333333; fill-opacity:1.00; text-anchor: end;" x="85" y="152">33</text><text style="font-size:12px; font-weight:300; font-family:'Roboto Condensed'; fill:#333333; fill-opacity:1.00;" x="90" y="152">Aminata - The Bound</text><line style="stroke: #EEEEEE; stroke-opacity: 1; stroke-width:1px;" x1="90" x2="290" y1="157.5" y2="157.5" /><rect height="12" style="fill: #6755E3;" width="3" x="290" y="140" /><rect height="12" rx="3" ry="3" style="fill: #6755E3;" width="252.083333333" x="290" y="140" /><text style="font-size:12px; font-weight:300; font-family:'Roboto Condensed'; fill:#333333; fill-opacity:1.00; text-anchor: middle;" x="32" y="174">3.</text><text style="font-size:12px; font-weight:400; font-family:'Roboto Condensed'; fill:#333333; fill-opacity:1.00; text-anchor: end;" x="85" y="174">32</text><text style="font-size:12px; font-weight:300; font-family:'Roboto Condensed'; fill:#333333; fill-opacity:1.00;" x="90" y="174">Cœur de pirate - Off to Sleep</text><line style="stroke: #EEEEEE; stroke-opacity: 1; stroke-width:1px;" x1="90" x2="290" y1="179.5" y2="179.5" /><rect height="12" style="fill: #6755E3;" width="3" x="290" y="162" /><rect height="12" rx="3" ry="3" style="fill: #6755E3;" width="244.444444444" x="290" y="162" /><text style="font-size:12px; font-weight:300; font-family:'Roboto Condensed'; fill:#333333; fill-opacity:1.00; text-anchor: middle;" x="32" y="196">4.</text><text style="font-size:12px; font-weight:400; font-family:'Roboto Condensed'; fill:#333333; fill-opacity:1.00; text-anchor: end;" x="85" y="196">26</text><text style="font-size:12px; font-weight:300; font-family:'Roboto Condensed'; fill:#333333; fill-opacity:1.00;" x="90" y="196">Farao - Hunter</text><line style="stroke: #EEEEEE; stroke-opacity: 1; stroke-width:1px;" x1="90" x2="290" y1="201.5" y2="201.5" /><rect height="12" style="fill: #6755E3;" width="3" x="290" y="184" /><rect height="12" rx="3" ry="3" style="fill: #6755E3;" width="198.611111111" x="290" y="184" /><text style="font-size:12px; font-weight:300; font-family:'Roboto Condensed'; fill:#333333; fill-opacity:1.00; text-anchor: middle;" x="32" y="218">5.</text><text style="font-size:12px; font-weight:400; font-family:'Roboto Condensed'; fill:#333333; fill-opacity:1.00; text-anchor: end;" x="85" y="218">25</text><text style="font-size:12px; font-weight:300; font-family:'Roboto Condensed'; fill:#333333; fill-opacity:1.00;" x="90" y="218">The Shoes - Stay The Same</text><line style="stroke: #EEEEEE; stroke-opacity: 1; stroke-width:1px;" x1="90" x2="290" y1="223.5" y2="223.5" /><rect height="12" style="fill: #6755E3;" width="3" x="290" y="206" /><rect height="12" rx="3" ry="3" style="fill: #6755E3;" width="190.972222222" x="290" y="206" /><text style="font-size:12px; font-weight:300; font-family:'Roboto Condensed'; fill:#333333; fill-opacity:1.00; text-anchor: middle;" x="32" y="240">6.</text><text style="font-size:12px; font-weight:400; font-family:'Roboto Condensed'; fill:#333333; fill-opacity:1.00; text-anchor: end;" x="85" y="240">23</text><text style="font-size:12px; font-weight:300; font-family:'Roboto Condensed'; fill:#333333; fill-opacity:1.00;" x="90" y="240">LuvBug - Resonance (feat. Talay Riley...</text><line style="stroke: #EEEEEE; stroke-opacity: 1; stroke-width:1px;" x1="90" x2="290" y1="245.5" y2="245.5" /><rect height="12" style="fill: #6755E3;" width="3" x="290" y="228" /><rect height="12" rx="3" ry="3" style="fill: #6755E3;" width="175.694444444" x="290" y="228" /><text style="font-size:12px; font-weight:300; font-family:'Roboto Condensed'; fill:#333333; fill-opacity:1.00; text-anchor: middle;" x="32" y="262">7.</text><text style="font-size:12px; font-weight:400; font-family:'Roboto Condensed'; fill:#333333; fill-opacity:1.00; text-anchor: end;" x="85" y="262">23</text><text style="font-size:12px; font-weight:300; font-family:'Roboto Condensed'; fill:#333333; fill-opacity:1.00;" x="90" y="262">Brandon Flowers - Can't Deny My Love</text><line style="stroke: #EEEEEE; stroke-opacity: 1; stroke-width:1px;" x1="90" x2="290" y1="267.5" y2="267.5" /><rect height="12" style="fill: #6755E3;" width="3" x="290" y="250" /><rect height="12" rx="3" ry="3" style="fill: #6755E3;" width="175.694444444" x="290" y="250" /><text style="font-size:12px; font-weight:300; font-family:'Roboto Condensed'; fill:#333333; fill-opacity:1.00; text-anchor: middle;" x="32" y="284">8.</text><text style="font-size:12px; font-weight:400; font-family:'Roboto Condensed'; fill:#333333; fill-opacity:1.00; text-anchor: end;" x="85" y="284">21</text><text style="font-size:12px; font-weight:300; font-family:'Roboto Condensed'; fill:#333333; fill-opacity:1.00;" x="90" y="284">Max Barskih - Hochu Tancevat</text><line style="stroke: #EEEEEE; stroke-opacity: 1; stroke-width:1px;" x1="90" x2="290" y1="289.5" y2="289.5" /><rect height="12" style="fill: #6755E3;" width="3" x="290" y="272" /><rect height="12" rx="3" ry="3" style="fill: #6755E3;" width="160.416666667" x="290" y="272" /><text style="font-size:12px; font-weight:300; font-family:'Roboto Condensed'; fill:#333333; fill-opacity:1.00; text-anchor: middle;" x="32" y="306">9.</text><text style="font-size:12px; font-weight:400; font-family:'Roboto Condensed'; fill:#333333; fill-opacity:1.00; text-anchor: end;" x="85" y="306">21</text><text style="font-size:12px; font-weight:300; font-family:'Roboto Condensed'; fill:#333333; fill-opacity:1.00;" x="90" y="306">Amanda Mair - Sense</text><line style="stroke: #EEEEEE; stroke-opacity: 1; stroke-width:1px;" x1="90" x2="290" y1="311.5" y2="311.5" /><rect height="12" style="fill: #6755E3;" width="3" x="290" y="294" /><rect height="12" rx="3" ry="3" style="fill: #6755E3;" width="160.416666667" x="290" y="294" /><text style="font-size:12px; font-weight:300; font-family:'Roboto Condensed'; fill:#333333; fill-opacity:1.00; text-anchor: middle;" x="32" y="328">10.</text><text style="font-size:12px; font-weight:400; font-family:'Roboto Condensed'; fill:#333333; fill-opacity:1.00; text-anchor: end;" x="85" y="328">20</text><text style="font-size:12px; font-weight:300; font-family:'Roboto Condensed'; fill:#333333; fill-opacity:1.00;" x="90" y="328">Conchita Wurst - Firestorm</text><line style="stroke: #EEEEEE; stroke-opacity: 1; stroke-width:1px;" x1="90" x2="290" y1="333.5" y2="333.5" /><rect height="12" style="fill: #6755E3;" width="3" x="290" y="316" /><rect height="12" rx="3" ry="3" style="fill: #6755E3;" width="152.777777778" x="290" y="316" /><text style="font-size:12px; font-weight:300; font-family:'Roboto Condensed'; fill:#333333; fill-opacity:1.00; text-anchor: middle;" x="32" y="350">11.</text><text style="font-size:12px; font-weight:400; font-family:'Roboto Condensed'; fill:#333333; fill-opacity:1.00; text-anchor: end;" x="85" y="350">18</text><text style="font-size:12px; font-weight:300; font-family:'Roboto Condensed'; fill:#333333; fill-opacity:1.00;" x="90" y="350">Zella Day - High</text><line style="stroke: #EEEEEE; stroke-opacity: 1; stroke-width:1px;" x1="90" x2="290" y1="355.5" y2="355.5" /><rect height="12" style="fill: #6755E3;" width="3" x="290" y="338" /><rect height="12" rx="3" ry="3" style="fill: #6755E3;" width="137.5" x="290" y="338" /><text style="font-size:12px; font-weight:300; font-family:'Roboto Condensed'; fill:#333333; fill-opacity:1.00; text-anchor: middle;" x="32" y="372">12.</text><text style="font-size:12px; font-weight:400; font-family:'Roboto Condensed'; fill:#333333; fill-opacity:1.00; text-anchor: end;" x="85" y="372">17</text><text style="font-size:12px; font-weight:300; font-family:'Roboto Condensed'; fill:#333333; fill-opacity:1.00;" x="90" y="372">Woolf and the Wondershow - Cages</text><line style="stroke: #EEEEEE; stroke-opacity: 1; stroke-width:1px;" x1="90" x2="290" y1="377.5" y2="377.5" /><rect height="12" style="fill: #6755E3;" width="3" x="290" y="360" /><rect height="12" rx="3" ry="3" style="fill: #6755E3;" width="129.861111111" x="290" y="360" /><text style="font-size:12px; font-weight:300; font-family:'Roboto Condensed'; fill:#333333; fill-opacity:1.00; text-anchor: middle;" x="32" y="394">13.</text><text style="font-size:12px; font-weight:400; font-family:'Roboto Condensed'; fill:#333333; fill-opacity:1.00; text-anchor: end;" x="85" y="394">13</text><text style="font-size:12px; font-weight:300; font-family:'Roboto Condensed'; fill:#333333; fill-opacity:1.00;" x="90" y="394">Laleh - Stars Align</text><line style="stroke: #EEEEEE; stroke-opacity: 1; stroke-width:1px;" x1="90" x2="290" y1="399.5" y2="399.5" /><rect height="12" style="fill: #6755E3;" width="3" x="290" y="382" /><rect height="12" rx="3" ry="3" style="fill: #6755E3;" width="99.3055555556" x="290" y="382" /><text style="font-size:12px; font-weight:300; font-family:'Roboto Condensed'; fill:#333333; fill-opacity:1.00; text-anchor: middle;" x="32" y="416">14.</text><text style="font-size:12px; font-weight:400; font-family:'Roboto Condensed'; fill:#333333; fill-opacity:1.00; text-anchor: end;" x="85" y="416">10</text><text style="font-size:12px; font-weight:300; font-family:'Roboto Condensed'; fill:#333333; fill-opacity:1.00;" x="90" y="416">Marco Mengoni - Io ti aspetto</text><line style="stroke: #EEEEEE; stroke-opacity: 1; stroke-width:1px;" x1="90" x2="290" y1="421.5" y2="421.5" /><rect height="12" style="fill: #6755E3;" width="3" x="290" y="404" /><rect height="12" rx="3" ry="3" style="fill: #6755E3;" width="76.3888888889" x="290" y="404" /><text style="font-size:12px; font-weight:300; font-family:'Roboto Condensed'; fill:#333333; fill-opacity:1.00; text-anchor: middle;" x="32" y="438">15.</text><text style="font-size:12px; font-weight:400; font-family:'Roboto Condensed'; fill:#333333; fill-opacity:1.00; text-anchor: end;" x="85" y="438">9</text><text style="font-size:12px; font-weight:300; font-family:'Roboto Condensed'; fill:#333333; fill-opacity:1.00;" x="90" y="438">Alex and Sierra - Scarecrow</text><line style="stroke: #EEEEEE; stroke-opacity: 1; stroke-width:1px;" x1="90" x2="290" y1="443.5" y2="443.5" /><rect height="12" style="fill: #6755E3;" width="3" x="290" y="426" /><rect height="12" rx="3" ry="3" style="fill: #6755E3;" width="68.75" x="290" y="426" /><text style="font-size:12px; font-weight:300; font-family:'Roboto Condensed'; fill:#333333; fill-opacity:1.00; text-anchor: middle;" x="32" y="460">16.</text><text style="font-size:12px; font-weight:400; font-family:'Roboto Condensed'; fill:#333333; fill-opacity:1.00; text-anchor: end;" x="85" y="460">7</text><text style="font-size:12px; font-weight:300; font-family:'Roboto Condensed'; fill:#333333; fill-opacity:1.00;" x="90" y="460">Jocelyn Alice - Jackpot</text><line style="stroke: #EEEEEE; stroke-opacity: 1; stroke-width:1px;" x1="90" x2="290" y1="465.5" y2="465.5" /><rect height="12" style="fill: #6755E3;" width="3" x="290" y="448" /><rect height="12" rx="3" ry="3" style="fill: #6755E3;" width="53.4722222222" x="290" y="448" /><text style="font-size:12px; font-weight:300; font-family:'Roboto Condensed'; fill:#333333; fill-opacity:1.00; text-anchor: middle;" x="32" y="482">17.</text><text style="font-size:12px; font-weight:400; font-family:'Roboto Condensed'; fill:#333333; fill-opacity:1.00; text-anchor: end;" x="85" y="482">6</text><text style="font-size:12px; font-weight:300; font-family:'Roboto Condensed'; fill:#333333; fill-opacity:1.00;" x="90" y="482">Ciara - I Got You</text><line style="stroke: #EEEEEE; stroke-opacity: 1; stroke-width:1px;" x1="90" x2="290" y1="487.5" y2="487.5" /><rect height="12" style="fill: #6755E3;" width="3" x="290" y="470" /><rect height="12" rx="3" ry="3" style="fill: #6755E3;" width="45.8333333333" x="290" y="470" /><text style="font-size:12px; font-weight:300; font-family:'Roboto Condensed'; fill:#333333; fill-opacity:1.00; text-anchor: middle;" x="32" y="504">18.</text><text style="font-size:12px; font-weight:400; font-family:'Roboto Condensed'; fill:#333333; fill-opacity:1.00; text-anchor: end;" x="85" y="504">5</text><text style="font-size:12px; font-weight:300; font-family:'Roboto Condensed'; fill:#333333; fill-opacity:1.00;" x="90" y="504">Tinie Tempah - Not Letting Go (feat. ...</text><line style="stroke: #EEEEEE; stroke-opacity: 1; stroke-width:1px;" x1="90" x2="290" y1="509.5" y2="509.5" /><rect height="12" style="fill: #6755E3;" width="3" x="290" y="492" /><rect height="12" rx="3" ry="3" style="fill: #6755E3;" width="38.1944444444" x="290" y="492" /><text style="font-size:12px; font-weight:300; font-family:'Roboto Condensed'; fill:#333333; fill-opacity:1.00; text-anchor: middle;" x="32" y="526">19.</text><text style="font-size:12px; font-weight:400; font-family:'Roboto Condensed'; fill:#333333; fill-opacity:1.00; text-anchor: end;" x="85" y="526">2</text><text style="font-size:12px; font-weight:300; font-family:'Roboto Condensed'; fill:#333333; fill-opacity:1.00;" x="90" y="526">Taylor Swift - Style</text><line style="stroke: #EEEEEE; stroke-opacity: 1; stroke-width:1px;" x1="90" x2="290" y1="531.5" y2="531.5" /><rect height="12" style="fill: #6755E3;" width="3" x="290" y="514" /><rect height="12" rx="3" ry="3" style="fill: #6755E3;" width="15.2777777778" x="290" y="514" /><text style="font-size:12px; font-weight:300; font-family:'Roboto Condensed'; fill:#333333; fill-opacity:1.00; text-anchor: middle;" x="32" y="548">20.</text><text style="font-size:12px; font-weight:400; font-family:'Roboto Condensed'; fill:#333333; fill-opacity:1.00; text-anchor: end;" x="85" y="548">1</text><text style="font-size:12px; font-weight:300; font-family:'Roboto Condensed'; fill:#333333; fill-opacity:1.00;" x="90" y="548">Xilent - Chemical (feat. Five Knives)</text><rect height="12" style="fill: #6755E3;" width="3" x="290" y="536" /><rect height="12" rx="3" ry="3" style="fill: #6755E3;" width="7.63888888889" x="290" y="536" /></svg>