<?xml version="1.0" encoding="utf-8" ?>
<?xml-stylesheet type="text/css" href="@import url(http://fonts.googleapis.com/css?family=Lato:400,900,400italic&subset=latin,latin-ext"?>
<svg baseProfile="full" height="572" version="1.1" width="600" xmlns="http://www.w3.org/2000/svg" xmlns:ev="http://www.w3.org/2001/xml-events" xmlns:xlink="http://www.w3.org/1999/xlink"><defs /><rect height="100%" style="fill: #EEEEEE;" width="100%" x="0" y="0" /><rect height="60" rx="10" ry="10" style="fill: #FFFFFF;" width="560" x="20" y="20" /><rect height="30" rx="10" ry="10" style="fill: #6755E3;" width="560" x="20" y="20" /><rect height="10" style="fill: #6755E3;" width="560" x="20" y="40" /><rect height="465.5" rx="10" ry="10" style="fill: #FFFFFF;" width="560" x="20" y="90" /><rect height="20" rx="10" ry="10" style="fill: #6755E3;" width="560" x="20" y="90" /><rect height="10" style="fill: #6755E3;" width="560" x="20" y="100" /><line style="stroke: #EEEEEE; stroke-opacity: 1; stroke-width:1px;" x1="290" x2="290" y1="110" y2="555.5" /><text style="font-size:18px; font-weight:700; font-family:'Roboto Condensed'; fill:#FFFFFF; fill-opacity:1.00;" x="30" y="43">2010's MC 51: Results</text><text style="font-size:14px; font-weight:300; font-family:'Roboto Condensed'; fill:#333333; fill-opacity:1.00;" x="30" y="70">Now Voting: TheMooCows (20/20)</text><text style="font-size:12px; font-weight:300; font-family:'Roboto Condensed'; fill:#333333; fill-opacity:1.00; text-anchor: middle;" x="32" y="130">1.</text><circle cx="54" cy="126" fill="#6755E3" r="8" /><text style="font-size:12px; font-weight:700; font-family:'Roboto Condensed'; fill:#FFFFFF; fill-opacity:1.00; text-anchor: middle;" x="54" y="130">6</text><text style="font-size:12px; font-weight:400; font-family:'Roboto Condensed'; fill:#333333; fill-opacity:1.00; text-anchor: end;" x="85" y="130">62</text><text style="font-size:12px; font-weight:300; font-family:'Roboto Condensed'; fill:#333333; fill-opacity:1.00;" x="90" y="130">Eva &amp; the Heartmaker - Give In</text><line style="stroke: #EEEEEE; stroke-opacity: 1; stroke-width:1px;" x1="90" x2="290" y1="135.5" y2="135.5" /><rect height="12" style="fill: #6755E3;" width="3" x="290" y="118" /><rect height="12" rx="3" ry="3" style="fill: #6755E3;" width="275.0" x="290" y="118" /><text style="font-size:12px; font-weight:300; font-family:'Roboto Condensed'; fill:#333333; fill-opacity:1.00; text-anchor: middle;" x="32" y="152">2.</text><text style="font-size:12px; font-weight:400; font-family:'Roboto Condensed'; fill:#333333; fill-opacity:1.00; text-anchor: end;" x="85" y="152">50</text><text style="font-size:12px; font-weight:300; font-family:'Roboto Condensed'; fill:#333333; fill-opacity:1.00;" x="90" y="152">Aminata - The Bound</text><line style="stroke: #EEEEEE; stroke-opacity: 1; stroke-width:1px;" x1="90" x2="290" y1="157.5" y2="157.5" /><rect height="12" style="fill: #6755E3;" width="3" x="290" y="140" /><rect height="12" rx="3" ry="3" style="fill: #6755E3;" width="221.774193548" x="290" y="140" /><text style="font-size:12px; font-weight:300; font-family:'Roboto Condensed'; fill:#333333; fill-opacity:1.00; text-anchor: middle;" x="32" y="174">3.</text><text style="font-size:12px; font-weight:400; font-family:'Roboto Condensed'; fill:#333333; fill-opacity:1.00; text-anchor: end;" x="85" y="174">48</text><text style="font-size:12px; font-weight:300; font-family:'Roboto Condensed'; fill:#333333; fill-opacity:1.00;" x="90" y="174">Cœur de pirate - Off to Sleep</text><line style="stroke: #EEEEEE; stroke-opacity: 1; stroke-width:1px;" x1="90" x2="290" y1="179.5" y2="179.5" /><rect height="12" style="fill: #6755E3;" width="3" x="290" y="162" /><rect height="12" rx="3" ry="3" style="fill: #6755E3;" width="212.903225806" x="290" y="162" /><text style="font-size:12px; font-weight:300; font-family:'Roboto Condensed'; fill:#333333; fill-opacity:1.00; text-anchor: middle;" x="32" y="196">4.</text><circle cx="54" cy="192" fill="#6755E3" r="8" /><text style="font-size:12px; font-weight:700; font-family:'Roboto Condensed'; fill:#FFFFFF; fill-opacity:1.00; text-anchor: middle;" x="54" y="196">12</text><text style="font-size:12px; font-weight:400; font-family:'Roboto Condensed'; fill:#333333; fill-opacity:1.00; text-anchor: end;" x="85" y="196">43</text><text style="font-size:12px; font-weight:300; font-family:'Roboto Condensed'; fill:#333333; fill-opacity:1.00;" x="90" y="196">Laleh - Stars Align</text><line style="stroke: #EEEEEE; stroke-opacity: 1; stroke-width:1px;" x1="90" x2="290" y1="201.5" y2="201.5" /><rect height="12" style="fill: #6755E3;" width="3" x="290" y="184" /><rect height="12" rx="3" ry="3" style="fill: #6755E3;" width="190.725806452" x="290" y="184" /><text style="font-size:12px; font-weight:300; font-family:'Roboto Condensed'; fill:#333333; fill-opacity:1.00; text-anchor: middle;" x="32" y="218">5.</text><text style="font-size:12px; font-weight:400; font-family:'Roboto Condensed'; fill:#333333; fill-opacity:1.00; text-anchor: end;" x="85" y="218">42</text><text style="font-size:12px; font-weight:300; font-family:'Roboto Condensed'; fill:#333333; fill-opacity:1.00;" x="90" y="218">Brandon Flowers - Can't Deny My Love</text><line style="stroke: #EEEEEE; stroke-opacity: 1; stroke-width:1px;" x1="90" x2="290" y1="223.5" y2="223.5" /><rect height="12" style="fill: #6755E3;" width="3" x="290" y="206" /><rect height="12" rx="3" ry="3" style="fill: #6755E3;" width="186.290322581" x="290" y="206" /><text style="font-size:12px; font-weight:300; font-family:'Roboto Condensed'; fill:#333333; fill-opacity:1.00; text-anchor: middle;" x="32" y="240">6.</text><circle cx="54" cy="236" fill="#6755E3" r="8" /><text style="font-size:12px; font-weight:700; font-family:'Roboto Condensed'; fill:#FFFFFF; fill-opacity:1.00; text-anchor: middle;" x="54" y="240">4</text><text style="font-size:12px; font-weight:400; font-family:'Roboto Condensed'; fill:#333333; fill-opacity:1.00; text-anchor: end;" x="85" y="240">35</text><text style="font-size:12px; font-weight:300; font-family:'Roboto Condensed'; fill:#333333; fill-opacity:1.00;" x="90" y="240">Amanda Mair - Sense</text><line style="stroke: #EEEEEE; stroke-opacity: 1; stroke-width:1px;" x1="90" x2="290" y1="245.5" y2="245.5" /><rect height="12" style="fill: #6755E3;" width="3" x="290" y="228" /><rect height="12" rx="3" ry="3" style="fill: #6755E3;" width="155.241935484" x="290" y="228" /><text style="font-size:12px; font-weight:300; font-family:'Roboto Condensed'; fill:#333333; fill-opacity:1.00; text-anchor: middle;" x="32" y="262">7.</text><text style="font-size:12px; font-weight:400; font-family:'Roboto Condensed'; fill:#333333; fill-opacity:1.00; text-anchor: end;" x="85" y="262">33</text><text style="font-size:12px; font-weight:300; font-family:'Roboto Condensed'; fill:#333333; fill-opacity:1.00;" x="90" y="262">Zella Day - High</text><line style="stroke: #EEEEEE; stroke-opacity: 1; stroke-width:1px;" x1="90" x2="290" y1="267.5" y2="267.5" /><rect height="12" style="fill: #6755E3;" width="3" x="290" y="250" /><rect height="12" rx="3" ry="3" style="fill: #6755E3;" width="146.370967742" x="290" y="250" /><text style="font-size:12px; font-weight:300; font-family:'Roboto Condensed'; fill:#333333; fill-opacity:1.00; text-anchor: middle;" x="32" y="284">8.</text><text style="font-size:12px; font-weight:400; font-family:'Roboto Condensed'; fill:#333333; fill-opacity:1.00; text-anchor: end;" x="85" y="284">31</text><text style="font-size:12px; font-weight:300; font-family:'Roboto Condensed'; fill:#333333; fill-opacity:1.00;" x="90" y="284">The Shoes - Stay The Same</text><line style="stroke: #EEEEEE; stroke-opacity: 1; stroke-width:1px;" x1="90" x2="290" y1="289.5" y2="289.5" /><rect height="12" style="fill: #6755E3;" width="3" x="290" y="272" /><rect height="12" rx="3" ry="3" style="fill: #6755E3;" width="137.5" x="290" y="272" /><text style="font-size:12px; font-weight:300; font-family:'Roboto Condensed'; fill:#333333; fill-opacity:1.00; text-anchor: middle;" x="32" y="306">9.</text><circle cx="54" cy="302" fill="#6755E3" r="8" /><text style="font-size:12px; font-weight:700; font-family:'Roboto Condensed'; fill:#FFFFFF; fill-opacity:1.00; text-anchor: middle;" x="54" y="306">7</text><text style="font-size:12px; font-weight:400; font-family:'Roboto Condensed'; fill:#333333; fill-opacity:1.00; text-anchor: end;" x="85" y="306">30</text><text style="font-size:12px; font-weight:300; font-family:'Roboto Condensed'; fill:#333333; fill-opacity:1.00;" x="90" y="306">Conchita Wurst - Firestorm</text><line style="stroke: #EEEEEE; stroke-opacity: 1; stroke-width:1px;" x1="90" x2="290" y1="311.5" y2="311.5" /><rect height="12" style="fill: #6755E3;" width="3" x="290" y="294" /><rect height="12" rx="3" ry="3" style="fill: #6755E3;" width="133.064516129" x="290" y="294" /><text style="font-size:12px; font-weight:300; font-family:'Roboto Condensed'; fill:#333333; fill-opacity:1.00; text-anchor: middle;" x="32" y="328">10.</text><circle cx="54" cy="324" fill="#6755E3" r="8" /><text style="font-size:12px; font-weight:700; font-family:'Roboto Condensed'; fill:#FFFFFF; fill-opacity:1.00; text-anchor: middle;" x="54" y="328">5</text><text style="font-size:12px; font-weight:400; font-family:'Roboto Condensed'; fill:#333333; fill-opacity:1.00; text-anchor: end;" x="85" y="328">30</text><text style="font-size:12px; font-weight:300; font-family:'Roboto Condensed'; fill:#333333; fill-opacity:1.00;" x="90" y="328">Marco Mengoni - Io ti aspetto</text><line style="stroke: #EEEEEE; stroke-opacity: 1; stroke-width:1px;" x1="90" x2="290" y1="333.5" y2="333.5" /><rect height="12" style="fill: #6755E3;" width="3" x="290" y="316" /><rect height="12" rx="3" ry="3" style="fill: #6755E3;" width="133.064516129" x="290" y="316" /><text style="font-size:12px; font-weight:300; font-family:'Roboto Condensed'; fill:#333333; fill-opacity:1.00; text-anchor: middle;" x="32" y="350">11.</text><circle cx="54" cy="346" fill="#6755E3" r="8" /><text style="font-size:12px; font-weight:700; font-family:'Roboto Condensed'; fill:#FFFFFF; fill-opacity:1.00; text-anchor: middle;" x="54" y="350">10</text><text style="font-size:12px; font-weight:400; font-family:'Roboto Condensed'; fill:#333333; fill-opacity:1.00; text-anchor: end;" x="85" y="350">28</text><text style="font-size:12px; font-weight:300; font-family:'Roboto Condensed'; fill:#333333; fill-opacity:1.00;" x="90" y="350">Alex and Sierra - Scarecrow</text><line style="stroke: #EEEEEE; stroke-opacity: 1; stroke-width:1px;" x1="90" x2="290" y1="355.5" y2="355.5" /><rect height="12" style="fill: #6755E3;" width="3" x="290" y="338" /><rect height="12" rx="3" ry="3" style="fill: #6755E3;" width="124.193548387" x="290" y="338" /><text style="font-size:12px; font-weight:300; font-family:'Roboto Condensed'; fill:#333333; fill-opacity:1.00; text-anchor: middle;" x="32" y="372">12.</text><circle cx="54" cy="368" fill="#6755E3" r="8" /><text style="font-size:12px; font-weight:700; font-family:'Roboto Condensed'; fill:#FFFFFF; fill-opacity:1.00; text-anchor: middle;" x="54" y="372">2</text><text style="font-size:12px; font-weight:400; font-family:'Roboto Condensed'; fill:#333333; fill-opacity:1.00; text-anchor: end;" x="85" y="372">26</text><text style="font-size:12px; font-weight:300; font-family:'Roboto Condensed'; fill:#333333; fill-opacity:1.00;" x="90" y="372">LuvBug - Resonance (feat. Talay Riley...</text><line style="stroke: #EEEEEE; stroke-opacity: 1; stroke-width:1px;" x1="90" x2="290" y1="377.5" y2="377.5" /><rect height="12" style="fill: #6755E3;" width="3" x="290" y="360" /><rect height="12" rx="3" ry="3" style="fill: #6755E3;" width="115.322580645" x="290" y="360" /><text style="font-size:12px; font-weight:300; font-family:'Roboto Condensed'; fill:#333333; fill-opacity:1.00; text-anchor: middle;" x="32" y="394">13.</text><text style="font-size:12px; font-weight:400; font-family:'Roboto Condensed'; fill:#333333; fill-opacity:1.00; text-anchor: end;" x="85" y="394">26</text><text style="font-size:12px; font-weight:300; font-family:'Roboto Condensed'; fill:#333333; fill-opacity:1.00;" x="90" y="394">Farao - Hunter</text><line style="stroke: #EEEEEE; stroke-opacity: 1; stroke-width:1px;" x1="90" x2="290" y1="399.5" y2="399.5" /><rect height="12" style="fill: #6755E3;" width="3" x="290" y="382" /><rect height="12" rx="3" ry="3" style="fill: #6755E3;" width="115.322580645" x="290" y="382" /><text style="font-size:12px; font-weight:300; font-family:'Roboto Condensed'; fill:#333333; fill-opacity:1.00; text-anchor: middle;" x="32" y="416">14.</text><circle cx="54" cy="412" fill="#6755E3" r="8" /><text style="font-size:12px; font-weight:700; font-family:'Roboto Condensed'; fill:#FFFFFF; fill-opacity:1.00; text-anchor: middle;" x="54" y="416">3</text><text style="font-size:12px; font-weight:400; font-family:'Roboto Condensed'; fill:#333333; fill-opacity:1.00; text-anchor: end;" x="85" y="416">25</text><text style="font-size:12px; font-weight:300; font-family:'Roboto Condensed'; fill:#333333; fill-opacity:1.00;" x="90" y="416">Max Barskih - Hochu Tancevat</text><line style="stroke: #EEEEEE; stroke-opacity: 1; stroke-width:1px;" x1="90" x2="290" y1="421.5" y2="421.5" /><rect height="12" style="fill: #6755E3;" width="3" x="290" y="404" /><rect height="12" rx="3" ry="3" style="fill: #6755E3;" width="110.887096774" x="290" y="404" /><text style="font-size:12px; font-weight:300; font-family:'Roboto Condensed'; fill:#333333; fill-opacity:1.00; text-anchor: middle;" x="32" y="438">15.</text><circle cx="54" cy="434" fill="#6755E3" r="8" /><text style="font-size:12px; font-weight:700; font-family:'Roboto Condensed'; fill:#FFFFFF; fill-opacity:1.00; text-anchor: middle;" x="54" y="438">8</text><text style="font-size:12px; font-weight:400; font-family:'Roboto Condensed'; fill:#333333; fill-opacity:1.00; text-anchor: end;" x="85" y="438">25</text><text style="font-size:12px; font-weight:300; font-family:'Roboto Condensed'; fill:#333333; fill-opacity:1.00;" x="90" y="438">Taylor Swift - Style</text><line style="stroke: #EEEEEE; stroke-opacity: 1; stroke-width:1px;" x1="90" x2="290" y1="443.5" y2="443.5" /><rect height="12" style="fill: #6755E3;" width="3" x="290" y="426" /><rect height="12" rx="3" ry="3" style="fill: #6755E3;" width="110.887096774" x="290" y="426" /><text style="font-size:12px; font-weight:300; font-family:'Roboto Condensed'; fill:#333333; fill-opacity:1.00; text-anchor: middle;" x="32" y="460">16.</text><text style="font-size:12px; font-weight:400; font-family:'Roboto Condensed'; fill:#333333; fill-opacity:1.00; text-anchor: end;" x="85" y="460">17</text><text style="font-size:12px; font-weight:300; font-family:'Roboto Condensed'; fill:#333333; fill-opacity:1.00;" x="90" y="460">Woolf and the Wondershow - Cages</text><line style="stroke: #EEEEEE; stroke-opacity: 1; stroke-width:1px;" x1="90" x2="290" y1="465.5" y2="465.5" /><rect height="12" style="fill: #6755E3;" width="3" x="290" y="448" /><rect height="12" rx="3" ry="3" style="fill: #6755E3;" width="75.4032258065" x="290" y="448" /><text style="font-size:12px; font-weight:300; font-family:'Roboto Condensed'; fill:#333333; fill-opacity:1.00; text-anchor: middle;" x="32" y="482">17.</text><text style="font-size:12px; font-weight:400; font-family:'Roboto Condensed'; fill:#333333; fill-opacity:1.00; text-anchor: end;" x="85" y="482">12</text><text style="font-size:12px; font-weight:300; font-family:'Roboto Condensed'; fill:#333333; fill-opacity:1.00;" x="90" y="482">Jocelyn Alice - Jackpot</text><line style="stroke: #EEEEEE; stroke-opacity: 1; stroke-width:1px;" x1="90" x2="290" y1="487.5" y2="487.5" /><rect height="12" style="fill: #6755E3;" width="3" x="290" y="470" /><rect height="12" rx="3" ry="3" style="fill: #6755E3;" width="53.2258064516" x="290" y="470" /><text style="font-size:12px; font-weight:300; font-family:'Roboto Condensed'; fill:#333333; fill-opacity:1.00; text-anchor: middle;" x="32" y="504">18.</text><text style="font-size:12px; font-weight:400; font-family:'Roboto Condensed'; fill:#333333; fill-opacity:1.00; text-anchor: end;" x="85" y="504">9</text><text style="font-size:12px; font-weight:300; font-family:'Roboto Condensed'; fill:#333333; fill-opacity:1.00;" x="90" y="504">Tinie Tempah - Not Letting Go (feat. ...</text><line style="stroke: #EEEEEE; stroke-opacity: 1; stroke-width:1px;" x1="90" x2="290" y1="509.5" y2="509.5" /><rect height="12" style="fill: #6755E3;" width="3" x="290" y="492" /><rect height="12" rx="3" ry="3" style="fill: #6755E3;" width="39.9193548387" x="290" y="492" /><text style="font-size:12px; font-weight:300; font-family:'Roboto Condensed'; fill:#333333; fill-opacity:1.00; text-anchor: middle;" x="32" y="526">19.</text><circle cx="54" cy="522" fill="#6755E3" r="8" /><text style="font-size:12px; font-weight:700; font-family:'Roboto Condensed'; fill:#FFFFFF; fill-opacity:1.00; text-anchor: middle;" x="54" y="526">1</text><text style="font-size:12px; font-weight:400; font-family:'Roboto Condensed'; fill:#333333; fill-opacity:1.00; text-anchor: end;" x="85" y="526">7</text><text style="font-size:12px; font-weight:300; font-family:'Roboto Condensed'; fill:#333333; fill-opacity:1.00;" x="90" y="526">Ciara - I Got You</text><line style="stroke: #EEEEEE; stroke-opacity: 1; stroke-width:1px;" x1="90" x2="290" y1="531.5" y2="531.5" /><rect height="12" style="fill: #6755E3;" width="3" x="290" y="514" /><rect height="12" rx="3" ry="3" style="fill: #6755E3;" width="31.0483870968" x="290" y="514" /><text style="font-size:12px; font-weight:300; font-family:'Roboto Condensed'; fill:#333333; fill-opacity:1.00; text-anchor: middle;" x="32" y="548">20.</text><text style="font-size:12px; font-weight:400; font-family:'Roboto Condensed'; fill:#333333; fill-opacity:1.00; text-anchor: end;" x="85" y="548">1</text><text style="font-size:12px; font-weight:300; font-family:'Roboto Condensed'; fill:#333333; fill-opacity:1.00;" x="90" y="548">Xilent - Chemical (feat. Five Knives)</text><rect height="12" style="fill: #6755E3;" width="3" x="290" y="536" /><rect height="12" rx="3" ry="3" style="fill: #6755E3;" width="4.43548387097" x="290" y="536" /></svg>