<?xml version="1.0" encoding="UTF-8" standalone="no"?>
<svg
   xmlns:dc="http://purl.org/dc/elements/1.1/"
   xmlns:cc="http://creativecommons.org/ns#"
   xmlns:rdf="http://www.w3.org/1999/02/22-rdf-syntax-ns#"
   xmlns:svg="http://www.w3.org/2000/svg"
   xmlns="http://www.w3.org/2000/svg"
   xmlns:sodipodi="http://sodipodi.sourceforge.net/DTD/sodipodi-0.dtd"
   xmlns:inkscape="http://www.inkscape.org/namespaces/inkscape"
   width="200"
   height="30"
   viewBox="0 0 266.66667 40"
   version="1.0"
   id="svg2"
   sodipodi:version="0.32"
   inkscape:version="0.91 r13725"
   sodipodi:docname="AB.svg"
   inkscape:output_extension="org.inkscape.output.svg.inkscape">
  <metadata
     id="metadata33">
    <rdf:RDF>
      <cc:Work
         rdf:about="">
        <dc:format>image/svg+xml</dc:format>
        <dc:type
           rdf:resource="http://purl.org/dc/dcmitype/StillImage" />
        <dc:title></dc:title>
      </cc:Work>
    </rdf:RDF>
  </metadata>
  <defs
     id="defs31">
    <inkscape:perspective
       sodipodi:type="inkscape:persp3d"
       inkscape:vp_x="0 : 97.5 : 1"
       inkscape:vp_y="0 : 1000 : 0"
       inkscape:vp_z="500.00001 : 97.5 : 1"
       inkscape:persp3d-origin="250 : 65 : 1"
       id="perspective35" />
  </defs>
  <sodipodi:namedview
     inkscape:window-height="712"
     inkscape:window-width="1280"
     inkscape:pageshadow="2"
     inkscape:pageopacity="0.0"
     guidetolerance="10.0"
     gridtolerance="10.0"
     objecttolerance="10.0"
     borderopacity="1.0"
     bordercolor="#666666"
     pagecolor="#ffffff"
     id="base"
     showgrid="false"
     inkscape:zoom="1.12625"
     inkscape:cx="66.14236"
     inkscape:cy="18.75176"
     inkscape:window-x="0"
     inkscape:window-y="0"
     inkscape:current-layer="svg2"
     fit-margin-top="0"
     fit-margin-left="0"
     fit-margin-right="0"
     fit-margin-bottom="0"
     inkscape:window-maximized="1" />
  <g
     id="#fcfefcff"
     style="fill:#5054a4;fill-opacity:1"
     transform="translate(-101.89528,-82.034534)" />
  <g
     id="g6427"
     transform="matrix(0.83609564,0,0,0.68155793,-63.340281,-49.542446)"
     style="fill:#5054a4;fill-opacity:1">
    <path
       d="m 83.60934,95.804562 c 4.690569,-4.814805 12.448369,-6.962694 18.70982,-4.099762 2.239,1.137442 4.23505,3.163857 4.66021,5.720342 0.4224,1.858006 -0.26227,3.702208 -0.66811,5.496718 -1.30585,5.16542 -2.55649,10.34465 -3.87614,15.50455 -0.0469,0.003 -0.13528,0.008 -0.17945,0.011 -1.22303,-3.03133 -2.299736,-6.13445 -3.826449,-9.03052 -1.112595,-2.01813 -2.99821,-3.9065 -5.422177,-4.03902 -1.69236,-0.0166 -3.390241,-0.0801 -5.07984,0.0635 2.172736,0.0856 3.74086,1.83868 4.839652,3.53656 1.747575,2.81876 2.68072,6.02955 3.981048,9.05537 0.911059,2.01813 2.004329,4.04179 3.757426,5.44978 -0.25399,0.32578 -0.513506,0.64879 -0.77302,0.9718 -3.268766,-2.22795 -4.538726,-6.17863 -5.89151,-9.69587 -1.137442,-2.66139 -2.031936,-5.57678 -4.143935,-7.65841 -1.071183,-1.12088 -2.608939,-1.75862 -4.157738,-1.73929 -1.540517,0.008 -3.083795,-0.0663 -4.62155,0.0773 0.784062,0.10491 1.579167,0.27331 2.227951,0.75369 2.158932,1.43009 3.362633,3.83473 4.328907,6.15931 1.211984,2.74698 2.001568,5.69273 3.608343,8.25474 0.872408,1.38315 1.951874,2.72489 3.437175,3.47858 1.490822,0.80339 3.243919,0.48866 4.845173,0.87517 -3.183182,3.27153 -7.636325,5.22616 -12.183334,5.45807 -2.835323,0.0883 -5.814208,-0.47762 -8.122222,-2.21415 -1.557082,-1.17609 -2.815999,-2.84361 -3.161096,-4.801 -0.414118,-1.66199 0.179451,-3.31846 0.535591,-4.928 1.468737,-5.88875 2.918148,-11.78302 4.397927,-17.66901 0.438965,-1.88285 1.44665,-3.597296 2.777348,-4.991491 m -4.798241,22.881371 c -0.444486,2.95128 1.819356,5.95501 4.756829,6.39121 2.666916,0.54111 5.43322,-1.17333 6.391212,-3.66908 -1.377631,-2.32734 -2.25556,-4.89763 -3.290853,-7.38509 -3.340547,-1.42733 -7.514851,1.06014 -7.857188,4.66296 z"
       id="path6"
       style="opacity:1;fill:#5054a4;fill-opacity:1"
       inkscape:connector-curvature="0" />
    <path
       d="m 205.41,72.86 c 2.1,-0.03 4.2,-0.08 6.3,-0.17 1.03,7.72 0.23,15.62 0.44,23.41 7.67,-9.35 23.43,-8.33 30.7,0.98 7.64,8.66 5.83,23.56 -3.68,30.12 -6.08,4.64 -14.65,5.31 -21.58,2.29 -7.06,-3.2 -12.35,-10.53 -12.17,-18.41 -0.03,-12.74 -0.05,-25.48 -0.01,-38.22 m 16.01,23.76 c -5.89,2.45 -9.82,8.93 -8.99,15.31 0.5,8.33 9.29,15.32 17.52,12.88 8.51,-2.11 13.11,-12.54 9.51,-20.4 -2.72,-6.83 -11.17,-10.79 -18.04,-7.79 z"
       id="path8"
       style="opacity:1;fill:#5054a4;fill-opacity:1"
       inkscape:connector-curvature="0" />
    <path
       d="m 323.77,72.82 c 2.3,0 4.62,0 6.93,-0.01 0.06,14.06 0,28.12 0.03,42.18 0.12,2.45 0.25,5.29 2.15,7.1 1.58,1.86 4.19,1.83 6.38,2.34 -0.01,2.02 -0.01,4.03 -0.01,6.05 -3.78,0.21 -7.76,-0.52 -10.68,-3.09 -3.74,-2.91 -4.85,-7.9 -4.82,-12.41 0.03,-14.06 0,-28.11 0.02,-42.16 z"
       id="path10"
       style="opacity:1;fill:#5054a4;fill-opacity:1"
       inkscape:connector-curvature="0" />
    <path
       d="m 167.22,75.88 c 2.93,-1.66 7.18,0.45 6.52,4.08 0.16,4.12 -5.84,4.95 -7.88,1.94 -0.54,-2.01 -0.72,-4.81 1.36,-6.02 z"
       id="path12"
       style="opacity:1;fill:#5054a4;fill-opacity:1"
       inkscape:connector-curvature="0" />
    <path
       d="m 345.36,76.36 c 2.2,-2.01 7.28,-0.97 7.07,2.61 0.6,2.66 -1.74,5.15 -4.43,4.72 -3.69,0.23 -5.14,-5.07 -2.64,-7.33 z"
       id="path14"
       style="opacity:1;fill:#5054a4;fill-opacity:1"
       inkscape:connector-curvature="0" />
    <path
       d="m 118.3,101.29 c 3.09,-6.41 9.65,-10.96 16.73,-11.64 11.06,-1.62 22.4,7.06 23.31,18.26 0.31,7.51 0.01,15.03 0.17,22.54 -2.28,-0.01 -4.56,-0.02 -6.83,-0.08 0,-2 0.01,-3.99 0.01,-5.99 -7.23,9.95 -23.29,8.82 -30.62,-0.41 -5.29,-6.14 -6.29,-15.44 -2.77,-22.68 m 14.08,-4.69 c -8.53,3.14 -11.69,14.52 -6.94,21.99 3.02,4.88 9.13,7.7 14.78,6.38 7.05,-1.44 12.23,-8.76 11.29,-15.89 -0.36,-9.03 -10.63,-16.24 -19.13,-12.48 z"
       id="path16"
       style="opacity:1;fill:#5054a4;fill-opacity:1"
       inkscape:connector-curvature="0" />
    <path
       d="m 183.76,96.74 c 3.42,-5.18 9.89,-7.61 15.95,-7.05 -0.02,2.14 -0.04,4.27 -0.09,6.41 -2.71,0.16 -5.71,-0.11 -8.03,1.59 -2.97,2.05 -3.89,5.91 -3.87,9.32 -0.09,7.84 0.1,15.68 -0.06,23.52 -2.29,-0.03 -4.57,-0.05 -6.86,-0.08 0.05,-7.16 0.02,-14.31 0.03,-21.46 0.05,-4.22 0.36,-8.72 2.93,-12.25 z"
       id="path18"
       style="opacity:1;fill:#5054a4;fill-opacity:1"
       inkscape:connector-curvature="0" />
    <path
       d="m 253.25,104.13 c 2.87,-8.99 12.24,-15.4 21.69,-14.56 9.09,0.57 17.11,7.63 19.12,16.46 -10.84,4.31 -21.69,8.62 -32.52,12.97 3.22,4.06 8.16,6.59 13.42,5.85 5.15,0.39 9.29,-3.08 12.09,-7.01 2.31,0.01 4.61,0.01 6.92,0.07 -1.77,4.7 -5.01,9.01 -9.62,11.21 -8.93,4.2 -20.77,2.51 -27.2,-5.3 -4.71,-5.28 -5.88,-13.02 -3.9,-19.69 m 17.04,-7.92 c -7.34,1.69 -12.23,9.45 -10.89,16.83 8.83,-3.02 17.27,-7.07 26.09,-10.14 -2.99,-5.17 -9.3,-8.38 -15.2,-6.69 z"
       id="path20"
       style="opacity:1;fill:#5054a4;fill-opacity:1"
       inkscape:connector-curvature="0" />
    <path
       d="m 305.41,93.35 c 3.48,-3.1 8.31,-3.92 12.83,-3.66 -0.01,1.88 0.05,3.75 -0.07,5.63 -0.92,1.4 -2.9,0.63 -4.27,1.04 -4.44,0.2 -7.58,4.62 -7.46,8.85 -0.12,8.42 0.01,16.85 -0.06,25.28 -2.3,0 -4.6,0 -6.9,0 0.02,-8.19 -0.06,-16.38 0.03,-24.57 0.08,-4.77 2.05,-9.62 5.9,-12.57 z"
       id="path22"
       style="opacity:1;fill:#5054a4;fill-opacity:1"
       inkscape:connector-curvature="0" />
    <path
       d="m 363.35,95.46 c 7.05,-8.25 21.86,-7.97 28.3,0.88 2.14,2.73 3,6.23 3,9.65 0.06,8.16 -0.04,16.33 0.05,24.49 -2.35,0.01 -4.7,0.01 -7.03,0.01 0,-8.19 0.05,-16.38 -0.02,-24.57 0.07,-2.81 -0.99,-5.63 -3.11,-7.51 -5.49,-5.23 -16.59,-2.56 -17.77,5.38 -0.57,8.89 -0.08,17.82 -0.24,26.72 -2.34,-0.01 -4.67,-0.01 -7,-0.07 0.05,-8.15 -0.02,-16.3 0.03,-24.45 -0.03,-3.81 1.18,-7.7 3.79,-10.53 z"
       id="path24"
       style="opacity:1;fill:#5054a4;fill-opacity:1"
       inkscape:connector-curvature="0" />
    <path
       d="m 166.19,90.58 c 2.3,-0.04 4.61,-0.03 6.92,-0.04 0.02,13.31 0.02,26.62 0,39.93 -2.31,0 -4.62,0 -6.93,-0.03 0.04,-13.29 0.06,-26.57 0.01,-39.86 z"
       id="path26"
       style="opacity:1;fill:#5054a4;fill-opacity:1"
       inkscape:connector-curvature="0" />
    <path
       d="m 344.68,90.54 c 2.31,0.01 4.63,0.01 6.95,0.01 0,13.33 0.05,26.65 -0.03,39.97 -2.31,-0.02 -4.62,-0.03 -6.92,-0.04 0.01,-13.31 -0.01,-26.63 0,-39.94 z"
       id="path28"
       style="opacity:1;fill:#5054a4;fill-opacity:1"
       inkscape:connector-curvature="0" />
  </g>
</svg>
