<?xml version="1.0" encoding="UTF-8" standalone="no"?>
<svg
   xmlns:dc="http://purl.org/dc/elements/1.1/"
   xmlns:cc="http://creativecommons.org/ns#"
   xmlns:rdf="http://www.w3.org/1999/02/22-rdf-syntax-ns#"
   xmlns:svg="http://www.w3.org/2000/svg"
   xmlns="http://www.w3.org/2000/svg"
   xmlns:sodipodi="http://sodipodi.sourceforge.net/DTD/sodipodi-0.dtd"
   xmlns:inkscape="http://www.inkscape.org/namespaces/inkscape"
   version="1.0"
   id="Layer_1"
   x="0px"
   y="0px"
   width="199.99883"
   height="30"
   viewBox="0 0 199.99883 29.999999"
   enable-background="new 0 0 400 34.998"
   xml:space="preserve"
   inkscape:version="0.91 r13725"
   sodipodi:docname="AF.svg"><metadata
     id="metadata34"><rdf:RDF><cc:Work
         rdf:about=""><dc:format>image/svg+xml</dc:format><dc:type
           rdf:resource="http://purl.org/dc/dcmitype/StillImage" /><dc:title></dc:title></cc:Work></rdf:RDF></metadata><defs
     id="defs32" /><sodipodi:namedview
     pagecolor="#ffffff"
     bordercolor="#666666"
     borderopacity="1"
     objecttolerance="10"
     gridtolerance="10"
     guidetolerance="10"
     inkscape:pageopacity="0"
     inkscape:pageshadow="2"
     inkscape:window-width="845"
     inkscape:window-height="480"
     id="namedview30"
     showgrid="false"
     fit-margin-top="0"
     fit-margin-left="0"
     fit-margin-right="0"
     fit-margin-bottom="0"
     inkscape:zoom="0.3875"
     inkscape:cx="99.99941"
     inkscape:cy="15.0005"
     inkscape:window-x="0"
     inkscape:window-y="0"
     inkscape:window-maximized="0"
     inkscape:current-layer="Layer_1" /><g
     id="g3"
     style="opacity:0.97000002;fill:#5054a4;fill-opacity:1"
     transform="matrix(0.50039236,0,0,0.8719156,-0.07906199,-0.25808702)"><g
       id="g5"
       style="fill:#5054a4;fill-opacity:1"><g
         id="g7"
         style="fill:#5054a4;fill-opacity:1"><path
           d="m 378.438,0.296 -17.952,25.975 c -2.364,3.416 -6.2,6.707 -10.83,7.061 l 0,0.797 19.967,0 c 5.3,0 9.166,-3.451 11.785,-7.252 l 18.434,-26.58 -21.404,0 0,-0.001 z"
           id="path9"
           style="fill:#5054a4;fill-opacity:1"
           inkscape:connector-curvature="0" /></g><linearGradient
         id="SVGID_1_"
         gradientUnits="userSpaceOnUse"
         x1="374.74899"
         y1="0.29589999"
         x2="374.74899"
         y2="34.128399"><stop
           offset="0.3352"
           style="stop-color:#FF1E27"
           id="stop12" /><stop
           offset="0.6915"
           style="stop-color:#E81B23"
           id="stop14" /><stop
           offset="0.7841"
           style="stop-color:#A61319"
           id="stop16" /><stop
           offset="0.8719"
           style="stop-color:#9D1218"
           id="stop18" /><stop
           offset="0.9551"
           style="stop-color:#931116"
           id="stop20" /><stop
           offset="1"
           style="stop-color:#800F14"
           id="stop22" /></linearGradient><path
         d="m 378.438,0.296 -17.952,25.971 c -2.364,3.42 -6.2,6.711 -10.83,7.064 l 0,0.797 19.967,0 c 5.3,0 9.166,-3.451 11.785,-7.252 l 18.434,-26.58 -21.404,0 0,0 z"
         id="path24"
         style="fill:#5054a4;fill-opacity:1"
         inkscape:connector-curvature="0" /><g
         id="g26"
         style="fill:#5054a4;fill-opacity:1"><path
           d="m 47.806,34.128 0,-30.978 9.043,0 0,30.978 -9.043,0 0,0 z m 208.462,0 -21.719,-18.395 0,18.395 -7.634,0 0,-30.978 6.485,0 21.431,18.107 0,-18.107 7.634,0 0,30.978 -6.197,0 0,0 z m 47.235,-20.983 c -4.087,-2.011 -8.686,-3.64 -14.786,-3.64 -7.283,0 -12.714,3.767 -12.714,9.005 0,5.37 5.526,9.167 12.648,9.167 5.877,0 10.542,-1.502 15.141,-4.152 l 0,7.666 c -4.06,2.014 -9.456,3.512 -15.522,3.512 -12.394,0 -22.135,-6.324 -22.135,-16.192 0,-9.71 9.934,-15.938 22.104,-15.938 5.746,0 10.954,1.086 15.264,2.843 l 0,7.729 0,0 z m -196.353,20.983 0,-30.978 30.212,0 0,6.64 -21.177,0 0,7.7 20.699,0 0,6.644 -20.699,0 0,9.994 -9.035,0 0,0 z m 201.815,0 0,-30.978 31.363,0 0,6.64 -22.324,0 0,5.369 21.97,0 0,6.641 -21.97,0 0,5.684 22.228,0 0,6.645 -31.267,0 0,-10e-4 z m -140.209,-11.623 12.491,11.623 -9.648,0 c -2.138,0 -3.544,-0.67 -4.664,-1.756 l -8.493,-8.238 c -0.162,-0.162 -0.416,-0.254 -0.735,-0.254 l -5.781,0 0,10.248 -9.04,0 0,-30.978 19.582,0 c 10.152,0 14.436,4.564 14.436,9.614 -0.002,5.873 -5.24,8.684 -8.148,9.741 l 0,0 0,0 z m -7.218,-5.112 c 3.578,0 5.304,-1.822 5.304,-3.863 0,-2.045 -1.533,-3.74 -5.304,-3.74 l -9.613,0 0,7.603 9.613,0 0,0 z m -70.356,5.112 12.486,11.623 -9.644,0 c -2.142,0 -3.547,-0.67 -4.664,-1.756 L 80.863,24.134 C 80.706,23.972 80.447,23.88 80.128,23.88 l -5.777,0 0,10.248 -9.043,0 0,-30.978 19.581,0 c 10.156,0 14.436,4.564 14.436,9.614 -0.001,5.873 -5.239,8.684 -8.143,9.741 l 0,0 0,0 z m -7.218,-5.112 c 3.574,0 5.3,-1.822 5.3,-3.863 0,-2.045 -1.533,-3.74 -5.3,-3.74 l -9.613,0 0,7.603 9.613,0 0,0 z m -50.301,16.735 -3.964,-6.801 -17.308,0 -3.609,6.801 -8.624,0 17.243,-30.947 7.857,0 19.547,30.947 -11.142,0 0,0 z m -17.825,-13.252 10.091,0 -5.238,-9.457 -4.853,9.457 0,0 z m 198.305,13.252 -3.867,-6.801 -16.861,0 -3.482,6.801 -8.4,0 16.801,-30.947 7.63,0 19.004,30.947 -10.825,0 0,0 z m -17.344,-13.252 9.837,0 -5.11,-9.457 -4.727,9.457 0,0 z"
           id="path28"
           style="fill:#5054a4;fill-opacity:1"
           inkscape:connector-curvature="0" /></g></g></g></svg>