<?xml version="1.0" encoding="UTF-8" standalone="no"?>
<!-- Generator: Adobe Illustrator 15.0.0, SVG Export Plug-In . SVG Version: 6.00 Build 0)  -->

<svg
   xmlns:dc="http://purl.org/dc/elements/1.1/"
   xmlns:cc="http://creativecommons.org/ns#"
   xmlns:rdf="http://www.w3.org/1999/02/22-rdf-syntax-ns#"
   xmlns:svg="http://www.w3.org/2000/svg"
   xmlns="http://www.w3.org/2000/svg"
   xmlns:sodipodi="http://sodipodi.sourceforge.net/DTD/sodipodi-0.dtd"
   xmlns:inkscape="http://www.inkscape.org/namespaces/inkscape"
   version="1.1"
   id="svg2"
   x="0px"
   y="0px"
   width="200"
   height="30"
   viewBox="0 0 200.00001 30"
   enable-background="new 0 0 151.833 36.333"
   xml:space="preserve"
   inkscape:version="0.91 r13725"
   sodipodi:docname="FI.svg"><metadata
     id="metadata88"><rdf:RDF><cc:Work
         rdf:about=""><dc:format>image/svg+xml</dc:format><dc:type
           rdf:resource="http://purl.org/dc/dcmitype/StillImage" /><dc:title></dc:title></cc:Work></rdf:RDF></metadata><defs
     id="defs86" /><sodipodi:namedview
     pagecolor="#ffffff"
     bordercolor="#666666"
     borderopacity="1"
     objecttolerance="10"
     gridtolerance="10"
     guidetolerance="10"
     inkscape:pageopacity="0"
     inkscape:pageshadow="2"
     inkscape:window-width="847"
     inkscape:window-height="480"
     id="namedview84"
     showgrid="false"
     fit-margin-top="0"
     fit-margin-left="0"
     fit-margin-right="0"
     fit-margin-bottom="0"
     inkscape:zoom="1.037324"
     inkscape:cx="80.718862"
     inkscape:cy="92.122524"
     inkscape:window-x="0"
     inkscape:window-y="0"
     inkscape:window-maximized="0"
     inkscape:current-layer="layer1" /><g
     id="layer1"
     transform="translate(-84.559254,-481.3645)"
     inkscape:groupmode="layer"
     inkscape:label="Layer 1"><linearGradient
       id="polygon674_1_"
       gradientUnits="userSpaceOnUse"
       x1="317.83981"
       y1="794.04523"
       x2="318.1152"
       y2="794.04523"
       gradientTransform="matrix(111.219,40.48,40.48,-111.219,-67269.609,75935.602)"><stop
         offset="0"
         style="stop-color:#A0A2A4"
         id="stop6" /><stop
         offset="0.0056"
         style="stop-color:#A0A2A4"
         id="stop8" /><stop
         offset="0.1579"
         style="stop-color:#B3B4B6"
         id="stop10" /><stop
         offset="0.4647"
         style="stop-color:#E3E4E5"
         id="stop12" /><stop
         offset="0.6236"
         style="stop-color:#FFFFFF"
         id="stop14" /><stop
         offset="0.7387"
         style="stop-color:#FCFCFC"
         id="stop16" /><stop
         offset="0.8366"
         style="stop-color:#F1F1F2"
         id="stop18" /><stop
         offset="0.9279"
         style="stop-color:#E0E0E2"
         id="stop20" /><stop
         offset="1"
         style="stop-color:#CCCDCF"
         id="stop22" /></linearGradient><linearGradient
       id="polygon697_1_"
       gradientUnits="userSpaceOnUse"
       x1="317.83881"
       y1="794.02472"
       x2="318.11609"
       y2="794.02472"
       gradientTransform="matrix(111.219,40.48,40.48,-111.219,-67269.609,75935.602)"><stop
         offset="0"
         style="stop-color:#111247"
         id="stop26" /><stop
         offset="0.0056"
         style="stop-color:#111247"
         id="stop28" /><stop
         offset="0.6236"
         style="stop-color:#1E2368"
         id="stop30" /><stop
         offset="0.8128"
         style="stop-color:#1D2265"
         id="stop32" /><stop
         offset="0.9602"
         style="stop-color:#191D5B"
         id="stop34" /><stop
         offset="1"
         style="stop-color:#171B57"
         id="stop36" /></linearGradient><linearGradient
       id="polygon724_1_"
       gradientUnits="userSpaceOnUse"
       x1="335.06921"
       y1="769.16919"
       x2="335.3457"
       y2="769.16919"
       gradientTransform="matrix(13.2809,4.9284,5.0642,-12.9239,-8111.3755,8793.8809)"><stop
         offset="0"
         style="stop-color:#622A15"
         id="stop40" /><stop
         offset="0.0686"
         style="stop-color:#622A15"
         id="stop42" /><stop
         offset="0.1639"
         style="stop-color:#693118"
         id="stop44" /><stop
         offset="0.2965"
         style="stop-color:#7C431E"
         id="stop46" /><stop
         offset="0.4558"
         style="stop-color:#8D5523"
         id="stop48" /><stop
         offset="0.659"
         style="stop-color:#A6712A"
         id="stop50" /><stop
         offset="0.8895"
         style="stop-color:#C69533"
         id="stop52" /><stop
         offset="1"
         style="stop-color:#C69533"
         id="stop54" /></linearGradient><linearGradient
       id="polygon759_1_"
       gradientUnits="userSpaceOnUse"
       x1="322.28699"
       y1="788.49628"
       x2="322.5639"
       y2="788.49628"
       gradientTransform="matrix(40.0384,18.5415,19.052,-38.9625,-27689.078,25243.234)"><stop
         offset="0"
         style="stop-color:#C28127"
         id="stop58" /><stop
         offset="0.0338"
         style="stop-color:#C5862C"
         id="stop60" /><stop
         offset="0.07"
         style="stop-color:#CB9339"
         id="stop62" /><stop
         offset="0.1234"
         style="stop-color:#D6AA5D"
         id="stop64" /><stop
         offset="0.2"
         style="stop-color:#E8CF96"
         id="stop66" /><stop
         offset="0.2281"
         style="stop-color:#E6CB8C"
         id="stop68" /><stop
         offset="0.275"
         style="stop-color:#E1C173"
         id="stop70" /><stop
         offset="0.3348"
         style="stop-color:#D9B049"
         id="stop72" /><stop
         offset="0.35"
         style="stop-color:#D7AB3D"
         id="stop74" /><stop
         offset="0.66"
         style="stop-color:#CD992C"
         id="stop76" /><stop
         offset="0.98"
         style="stop-color:#C27F27"
         id="stop78" /><stop
         offset="1"
         style="stop-color:#C27F27"
         id="stop80" /></linearGradient><g
       id="g4312"
       transform="matrix(1.3333288,0,0,0.86717734,-61.518916,65.928457)"><path
         d="m 258.754,479.073 c -1.055,0.062 -9.475,0.599 -9.475,0.599 0,0 -0.346,-0.063 -0.787,0.456 -0.455,0.52 -25.932,29.347 -25.932,29.347 0,0 -3.51,3.761 -8.402,4.187 l -0.031,0 34.854,0 10.543,-33.91 c 10e-4,-0.002 0.285,-0.758 -0.77,-0.679"
         id="path645"
         inkscape:connector-curvature="0"
         style="fill:#1e2368" /><path
         d="m 249.207,479.671 c -0.125,0.009 -0.396,0.077 -0.73,0.457 -0.375,0.442 -18.879,21.383 -24.389,27.614 5.51,-6.23 24.018,-27.172 24.404,-27.614 0.322,-0.38 0.592,-0.448 0.715,-0.457 l 0,0 z"
         id="polygon674"
         style="fill:url(#polygon674_1_)"
         inkscape:connector-curvature="0" /><path
         style="fill:#5054a4;fill-opacity:1"
         d="m 258.9,479.067 c -0.045,0 -0.094,0.002 -0.148,0.006 -1.055,0.062 -9.473,0.597 -9.473,0.597 l -0.037,0 c -0.102,0 -0.393,0.039 -0.75,0.458 -0.391,0.445 -19.26,21.798 -24.561,27.794 -0.867,0.983 -1.371,1.553 -1.371,1.553 0,0 -3.51,3.761 -8.402,4.185 l 34.822,0 10.543,-33.908 c 0,0 0.039,-0.096 0.035,-0.217 -0.003,-0.201 -0.107,-0.468 -0.658,-0.468 l 0,0 z"
         id="polygon697"
         inkscape:connector-curvature="0" /><path
         style="fill:#fdfdfe;fill-opacity:1"
         d="m 238.369,504.151 c -2.023,0.131 -3.535,0.557 -4.551,1.201 -0.23,0.141 -0.406,0.307 -0.484,0.516 -0.111,0.293 0.195,0.672 0.562,0.809 0.406,0.158 0.955,0.266 1.816,0.277 1.012,0.017 1.521,-0.178 1.521,-0.178 0,0 0.227,-0.566 0.455,-1.08 0.154,-0.369 0.512,-1.16 0.682,-1.545 l -0.001,0 0,0 z"
         id="polygon724"
         inkscape:connector-curvature="0" /><path
         style="fill:#fdfdfe;fill-opacity:1"
         d="m 252.668,493.449 c -0.01,0.012 -0.873,0.99 -3.877,0.955 -2.02,-0.023 -3.125,-0.65 -5.588,-0.681 -2.729,-0.032 -4.754,0.916 -5.381,2.169 -0.314,0.631 -1.857,4.17 -1.857,4.17 0,0 0.865,-0.883 2.299,-1.33 1.967,-0.613 3.797,-0.5 5.684,-0.205 1.385,0.219 2.139,0.486 3.396,0.449 1.135,-0.033 1.713,-0.287 2.166,-0.541 0.572,-0.326 1.17,-0.867 1.861,-1.982 0.51,-0.813 1.166,-2.589 1.297,-3.004 l 0,0 0,0 z m -2.791,5.752 c 0,0 -0.418,0.326 -1.799,0.554 l 0,0 c -0.578,0.103 -1.189,0.067 -1.654,0.043 -1.285,-0.072 -2.078,-0.347 -4.158,-0.526 -2.812,-0.242 -5.195,0.573 -6.252,1.451 -0.314,0.268 -0.592,0.553 -0.738,0.837 -0.758,1.435 -1.439,2.99 -1.826,3.878 -0.162,0.352 -0.143,0.561 -0.143,0.561 0.104,-0.204 0.311,-0.502 0.531,-0.643 1.576,-1.002 4.307,-1.492 8.371,-1.115 2.781,0.254 4.215,0.121 5.633,-1.537 1.162,-1.353 2.035,-3.503 2.035,-3.503 l 0,0 z"
         id="polygon759"
         inkscape:connector-curvature="0" /><path
         style="fill:#5054a4;fill-opacity:1"
         d="m 163.478,494.683 -4.209,0 0.142,0.241 c 0.198,0.148 0.379,0.299 0.629,0.564 0.196,0.22 0.243,0.326 0.243,0.816 l 0,7.934 2.579,0 0,-6.344 0.04,-0.041 5.668,6.385 2.273,0 0,-9.556 -3.598,0 0.107,0.241 c 0.185,0.148 0.373,0.299 0.625,0.564 0.188,0.22 0.281,0.326 0.281,0.816 l 0,3.7 -4.78,-5.32 z m 47.385,9.557 -2.043,-3.437 -2.342,0 0,3.437 -2.9,0 0,-7.934 c 0,-0.49 -0.057,-0.598 -0.25,-0.816 -0.25,-0.266 -0.436,-0.416 -0.621,-0.564 -0.131,-0.105 -0.152,-0.082 -0.152,-0.241 l 7.459,0 c 2.115,0 3.717,1.024 3.717,3.015 0,1.553 -0.766,2.41 -2.066,2.91 l 2.26,3.631 -3.062,0 z m -12.957,0 0,-7.934 c 0,-0.49 -0.059,-0.598 -0.25,-0.816 -0.246,-0.266 -0.428,-0.416 -0.613,-0.564 -0.127,-0.105 -0.127,-0.082 -0.127,-0.241 l 3.893,0 0,9.556 -2.903,0 z m -4.455,0 -0.809,-1.834 -4.797,0 -0.832,1.834 -2.72,0 3.677,-8.18 c 0.043,-0.117 0.092,-0.219 0.092,-0.393 0,-0.189 -0.217,-0.403 -0.652,-0.725 -0.115,-0.088 -0.129,-0.088 -0.129,-0.26 l 4.789,0 4.451,9.555 -3.07,0 0,0.003 z m -14.809,0 -5.043,0 0,-7.934 c 0,-0.49 -0.063,-0.598 -0.261,-0.816 -0.243,-0.266 -0.44,-0.416 -0.628,-0.564 -0.124,-0.105 -0.115,-0.082 -0.115,-0.241 l 5.992,0 c 3.535,0 5.396,1.808 5.396,4.769 -0.001,2.722 -1.71,4.786 -5.341,4.786 m -40.271,0 0,-7.934 c 0,-0.49 -0.069,-0.598 -0.247,-0.816 -0.253,-0.266 -0.438,-0.416 -0.624,-0.564 -0.135,-0.105 -0.149,-0.082 -0.149,-0.241 l 3.906,0 0,7.296 4.6,0 0,2.26 -7.486,0 0,-10e-4 z m -11.276,0 0,-7.934 c 0,-0.49 -0.056,-0.598 -0.242,-0.816 -0.25,-0.266 -0.435,-0.416 -0.623,-0.564 -0.137,-0.105 -0.145,-0.082 -0.145,-0.241 l 9.973,0 0,1.976 -6.084,0 0,1.75 4.486,0 0,1.965 -4.484,0 0,1.842 6.119,0 0,2.023 -9,0 0,-10e-4 z m -5.779,0.333 c -3.379,0 -6.418,-1.477 -6.418,-5.078 0,-2.863 2.188,-5.201 6.361,-5.201 1.635,0 2.896,0.316 3.986,0.837 l -0.688,2.258 c -0.606,-0.429 -1.799,-0.866 -3.1,-0.866 -2.596,0 -3.623,1.43 -3.623,2.857 0,1.972 1.532,2.955 3.586,2.955 1.385,0 2.499,-0.389 3.176,-0.784 l 0.73,2.036 c -0.846,0.505 -2.315,0.986 -4.01,0.986 m -10.754,-0.333 0,-9.869 c 0,-0.485 -0.061,-0.582 -0.235,-0.795 -0.267,-0.268 -0.444,-0.416 -0.621,-0.56 l -0.147,-0.253 3.959,0 0,11.477 -2.956,0 0,0 z m 98.825,-7.681 -2.908,0 0,2.411 3.059,0 c 0.912,0 1.459,-0.429 1.459,-1.188 -0.001,-0.661 -0.343,-1.223 -1.61,-1.223 m -19.123,0.377 -1.604,3.633 3.176,0 -1.572,-3.633 z m -12.032,-0.186 -1.738,0 0,5.373 1.738,0 c 2.1,0 2.791,-0.924 2.791,-2.672 -0.002,-1.873 -0.859,-2.701 -2.791,-2.701 m -22.404,7.49 -0.818,-1.834 -4.785,0 -0.834,1.834 -2.718,0 3.673,-8.18 c 0.043,-0.117 0.088,-0.219 0.088,-0.393 0,-0.189 -0.209,-0.403 -0.654,-0.725 -0.116,-0.088 -0.121,-0.088 -0.121,-0.26 l 4.791,0 4.443,9.555 -3.064,0 0,0.003 z m -3.201,-7.304 -1.597,3.633 3.186,0 -1.589,-3.633 z"
         id="path763"
         inkscape:connector-curvature="0" /></g></g></svg>