<?xml version="1.0" encoding="UTF-8" standalone="no"?>
<svg
   xmlns:dc="http://purl.org/dc/elements/1.1/"
   xmlns:cc="http://creativecommons.org/ns#"
   xmlns:rdf="http://www.w3.org/1999/02/22-rdf-syntax-ns#"
   xmlns:svg="http://www.w3.org/2000/svg"
   xmlns="http://www.w3.org/2000/svg"
   xmlns:sodipodi="http://sodipodi.sourceforge.net/DTD/sodipodi-0.dtd"
   xmlns:inkscape="http://www.inkscape.org/namespaces/inkscape"
   version="1.1"
   x="0px"
   y="0px"
   width="200"
   height="30"
   viewBox="0 0 200 30"
   enable-background="new 0 0 496 100"
   xml:space="preserve"
   id="svg6469"
   inkscape:version="0.91 r13725"
   sodipodi:docname="JU.svg"><metadata
     id="metadata6481"><rdf:RDF><cc:Work
         rdf:about=""><dc:format>image/svg+xml</dc:format><dc:type
           rdf:resource="http://purl.org/dc/dcmitype/StillImage" /><dc:title></dc:title></cc:Work></rdf:RDF></metadata><defs
     id="defs6479" /><sodipodi:namedview
     pagecolor="#ffffff"
     bordercolor="#666666"
     borderopacity="1"
     objecttolerance="10"
     gridtolerance="10"
     guidetolerance="10"
     inkscape:pageopacity="0"
     inkscape:pageshadow="2"
     inkscape:window-width="845"
     inkscape:window-height="480"
     id="namedview6477"
     showgrid="false"
     fit-margin-top="0"
     fit-margin-left="0"
     fit-margin-right="0"
     fit-margin-bottom="0"
     inkscape:zoom="0.625"
     inkscape:cx="100"
     inkscape:cy="15.000124"
     inkscape:window-x="0"
     inkscape:window-y="0"
     inkscape:window-maximized="0"
     inkscape:current-layer="svg6469" /><path
     d="m 38.48065,16.973667 2.14354,-1.806304 1.11936,-1.041602 3.68629,-3.161108 c 0,0 1.9125,-1.6317046 4.71008,-1.7019036 1.5375,-0.0333 3.17097,0.4179 4.75806,1.3914026 -0.65242,0.520501 -1.77217,1.180803 -3.26492,1.422904 -1.49314,0.174 -3.125,-0.105001 -4.8504,-1.076103 l -1.67943,1.458003 c 2.33145,1.250704 4.75766,1.771204 7.04314,1.494004 3.4996,-0.555601 5.4121,-2.778007 5.50444,-2.917807 l 0.56008,-0.624902 -0.74678,-0.5556006 c -2.33185,-1.736405 -4.8504,-2.569207 -7.46129,-2.500806 -2.05121,0.0696 -3.73064,0.729602 -4.89798,1.320303 -0.0464,0.0333 -0.51331,0.278401 -0.55847,0.311101 l -1.82016,-1.422304 c -0.41936,-0.417901 -1.12097,-1.041603 -1.26008,-1.392004 -0.14032,-0.3111 -0.14032,-0.555301 -0.18468,-0.762301 -0.18669,-0.555602 -0.27903,-1.529104 -0.27903,-1.529104 0,0 0,-0.209101 -0.14073,-0.486301 l -0.14032,-0.346801 c 0,0 1.49274,-0.486001 2.56613,-0.451201 l 0.60605,0.625202 0.0464,-0.590702 0,-0.869703 c 0,0 -0.094,-0.4533 -0.65242,-0.79950097 -0.41935,-0.242101 -0.60766,-0.278401 -1.16613,-0.313801 -0.65202,-0.0696 -0.74637,0.0357 -1.25806,-0.311101 -0.46734,-0.451201 -3.54597,-0.381601 -4.33871,-0.174 0,0 -0.55968,0.1047 -0.98105,0.86700197 l -0.83871,2.015705 c 0,0 -0.23307,0.660002 -0.27903,1.631104 -0.0464,0.555901 -0.13912,1.564804 -0.32742,1.947605 l -0.46694,1.180802 c -0.65242,1.180204 -1.30645,1.771505 -1.30645,1.771505 l -2.51855,2.1891056 -0.69839,0.624901 -0.69838,-0.624901 0,-0.0351 c -0.84033,-0.729602 -1.72702,-1.424703 -2.51815,-2.1531046 0,0 -0.74677,-0.624902 -1.39919,-1.875605 l -0.375,-1.076402 c -0.23266,-0.348302 -0.3254,-1.041904 -0.37299,-1.947605 -0.0464,-0.971103 -0.23306,-1.631404 -0.23306,-1.631404 L 22.625,1.0295284 C 22.25161,0.26722643 21.59798,0.16252643 21.59798,0.16252643 c -0.74677,-0.208801 -3.825,-0.278401 -4.29072,0.174 -0.5121,0.346801 -0.65242,0.242101 -1.30444,0.311101 -0.5125,0.0357 -0.7004,0.0717 -1.11976,0.314101 C 14.27702,1.3076294 14.22903,1.7612304 14.22903,1.7612304 l 0,0.867602 0.048,0.590701 0.60604,-0.625201 c 1.07339,-0.0351 2.56452,0.451201 2.56452,0.451201 l -0.18831,0.346501 c -0.0939,0.2784 -0.0939,0.486301 -0.0939,0.486301 0,0 -0.0923,0.973503 -0.23266,1.529104 -0.0923,0.2064 -0.13911,0.451201 -0.23468,0.762302 -0.23266,0.453301 -1.3508,1.460104 -1.63306,1.634103 l -1.44516,1.180204 C 12.54643,8.2913464 10.63433,7.4222444 8.20974,7.3526444 5.55208,7.2833444 3.07829,8.1173454 0.69885,9.8534504 L 0,10.409051 0.51331,11.033653 c 0.0923,0.1401 2.00484,2.362506 5.50242,2.918407 2.28548,0.278401 4.71169,-0.209701 7.08992,-1.458003 l -1.72581,-1.461604 c -1.72419,0.937202 -3.26492,1.215903 -4.85,1.041903 C 5.08468,11.832855 4.01129,11.172853 3.35726,10.652052 4.89637,9.6785504 6.48185,9.2273484 8.06895,9.2600494 c 2.75121,0.072 4.71049,1.7025036 4.71049,1.7025036 l 4.05604,3.577509 1.67944,-1.424704 -3.12621,-2.745607 3.68387,-3.4374076 1.49315,-1.425304 c 0.32701,1.392003 2.00645,3.787209 2.70524,4.6212116 l -4.05766,3.577808 -3.35726,2.986808 c -0.93307,0.693002 -4.05766,3.022207 -7.78831,4.548911 0,0 1.16613,0.627302 2.70363,0.591302 0.93307,0 1.9121,-0.242101 2.93952,-0.974103 0.46572,-0.3111 1.0254,-0.729601 1.63346,-1.143903 0,0 -0.28064,0.520502 0.41936,1.457404 0.46734,0.695102 1.35242,1.111502 2.56452,1.146603 1.86612,0.069 3.21854,-0.695102 4.19798,-1.529404 l -1.35403,-1.146603 c 0,0 -1.2121,1.320604 -2.75121,0.522601 -0.51331,-0.4176 -0.51331,-1.041602 -0.51331,-1.041602 0,-0.869703 4.80403,-5.349013 5.73831,-6.287415 l 1.25847,-1.180804 2.51854,2.153105 0.0476,0.0696 -3.17258,2.951407 1.39879,1.182903 3.40525,-2.744407 4.10403,3.437408 2.70524,2.258106 c 0.93145,0.764402 2.19153,1.389003 3.91734,1.355403 1.2121,-0.0351 2.14516,-0.451501 2.65726,-1.146602 0.65363,-0.936903 0.32701,-1.457404 0.32701,-1.457404 0.60605,0.416101 1.2121,0.833702 1.63347,1.143903 2.70524,1.911605 5.69073,0.381601 5.69073,0.381601 -3.73226,-1.526704 -6.85686,-3.85621 -7.74355,-4.548912 l -1.0254,-0.902102 -2.0992,1.771205 c 1.02581,1.006502 0.98105,1.562404 0.98105,1.562404 0,0 0.0448,0.625201 -0.51331,1.041603 -1.44516,0.797401 -2.79758,-0.590402 -2.79758,-0.590402 -2.09879,-1.911605 -4.10403,-3.82111 -6.20282,-5.696715 l 0.0444,-0.0696 1.53911,-1.355703 0.93266,-0.797403 3.07823,3.123909 1.96008,-1.735805 -3.40525,-2.917807 c 0.69879,-0.8340016 2.37984,-3.2292086 2.70363,-4.6212106 l 1.49274,1.424703 3.6863,3.4380086 -0.74678,0.627601 -3.07984,2.709607 -2.65766,2.291105 -0.79274,0.732002 1.67782,1.422003 1.3117,-1.175703 z m -4.33831,3.82081 -1.67984,-1.457704 c -1.44476,1.248304 -7.83629,6.494416 -7.9746,7.015818 C 23.36613,28.470596 24.86129,30 24.86129,30 c 0.18669,-1.320304 1.72702,-2.607907 2.28548,-3.126908 l 6.99557,-6.078615 z m -3.17258,6.078615 c 0.56008,0.519901 2.09919,1.806304 2.28548,3.126908 0,0 1.5375,-1.529404 0.37379,-3.68251 0,0 -0.18548,-0.5202 -2.14355,-2.013304 l -1.72742,1.527304 0.23468,0.1398 0.97702,0.901802 z"
     id="path6471"
     style="fill:#5054a4;fill-opacity:1"
     inkscape:connector-curvature="0" /><polygon
     points="70.445,72.092 54.254,53.223 50.319,58.312 66.28,77.072 "
     id="polygon6473"
     style="fill:#5054a4;fill-opacity:1"
     transform="matrix(0.40322581,0,0,0.30000075,0,-7.3565373e-5)" /><path
     d="m 61.28871,21.767079 4.10403,0 2.28549,-2.849107 7.32258,0 0.18669,2.849107 4.10403,0 -0.65242,-5.489113 c -2.75282,0.3141 -4.19758,0.2793 -4.19758,0.2793 l -4.89798,0 4.85,-5.939114 0.32742,4.967112 c 1.16572,-0.1044 2.4258,-0.348601 3.77822,-0.660001 l -0.93306,-7.1202176 -3.03226,0 c -0.93145,0 -1.67782,0.3468 -2.23911,0.973502 L 61.28871,21.767079 Z m 21.50242,0 4.19597,0 2.51895,-9.032722 -0.0464,0.0696 c -1.63307,0.522901 -3.1246,0.974102 -4.57137,1.320003 l -2.09718,7.643119 z m 2.70322,-9.760823 c 2.0992,-0.695702 3.82662,-1.353304 4.66371,-1.736105 0.0923,-0.3486006 0,-0.6951016 -0.27903,-1.0092026 -0.32701,-0.3111 -0.70161,-0.450601 -1.35403,-0.450601 l -2.09718,-0.0333 -0.93347,3.2292076 z m 7.32259,3.751508 -1.67944,6.009015 4.19798,0 1.77218,-6.357016 c 0.23266,-0.904201 0.7,-1.596904 1.39879,-2.014804 0.65242,-0.416101 1.58589,-0.624902 2.84395,-0.624902 l 1.72742,0 c 0,0 0.0448,-1.251303 0.37339,-1.875904 0.375,-0.832802 1.02581,-1.4235036 1.02581,-1.4235036 l -1.25686,0 -0.23629,0 c -1.11774,0 -2.19193,0.1395 -3.26492,0.313501 -1.11814,0.2423996 -2.05121,0.5559006 -2.98266,1.0068016 -0.88508,0.486302 -1.72702,1.146303 -2.42621,1.980305 -0.65403,0.797402 -1.16613,1.806005 -1.49314,2.986507 l 0,0 z m 14.27338,-0.973202 c 0.51049,0.313201 1.58549,0.590401 3.35766,0.903902 l 0.42097,0.0693 0.0935,0.0351 c 3.1246,0.588301 4.47581,1.285203 4.15202,2.152805 -0.1867,0.555901 -0.65404,0.972002 -1.35242,1.285203 -0.70162,0.311101 -1.63307,0.451201 -2.75444,0.451201 -1.25847,0 -2.14355,-0.174 -2.75121,-0.555601 -0.56008,-0.346801 -0.83871,-0.937503 -0.65403,-1.738805 l -3.82298,0 c -0.46734,1.530004 -0.14033,2.709607 0.93185,3.510009 0.93145,0.764702 2.65887,1.180803 5.08266,1.180803 2.42661,0 4.43266,-0.382201 6.06411,-1.144203 1.53952,-0.799802 2.65928,-1.947604 3.17097,-3.405309 0.23428,-0.660001 0.23428,-1.320002 0.094,-1.875904 -0.88508,-1.736104 -4.38467,-2.152805 -6.52782,-2.605206 -2.00847,-0.314101 -2.89395,-0.902102 -2.56653,-1.634104 0.18669,-0.519902 0.60605,-0.937503 1.25847,-1.248304 0.56129,-0.3134996 1.39919,-0.4508996 2.51855,-0.4508996 1.12096,0 1.91209,0.206999 2.47379,0.5204996 0.27903,0.208801 0.41935,0.417902 0.51048,0.695103 0.14073,0.588901 0.65363,0.867301 1.49274,0.867301 l 2.14516,0 c 0.46734,-1.353603 0.23307,-2.4312056 -0.74677,-3.2655066 -0.88508,-0.765002 -2.47218,-1.146904 -4.71008,-1.146904 -2.37782,0 -4.29234,0.349201 -5.82944,1.078503 -1.49314,0.764702 -2.47258,1.8066046 -2.98548,3.1245076 -0.23307,0.765002 -0.27944,1.392004 -0.14073,1.843204 0.0944,0.588002 0.46895,1.041603 1.075,1.353304 l 0,0 z m 21.6871,-4.584911 9.84073,0 0.8387,-2.3958066 -11.65766,0 c -0.5129,0 -1.07298,0.137401 -1.53871,0.417902 -0.51209,0.278401 -0.79274,0.625202 -0.97943,1.039502 l -4.525,12.4707306 13.66411,0 0.98145,-2.568906 -9.88911,0 1.30806,-3.577809 5.36049,0 c 0.51371,0 1.07379,-0.1044 1.53951,-0.417901 0.51291,-0.278401 0.79396,-0.624901 0.93267,-1.041602 l 0.37379,-0.937803 -7.32137,0 1.07177,-2.988307 z m 13.66734,-0.9387026 -4.525,12.5061306 3.87137,0 2.00645,-5.418613 4.10403,0 c 0.98105,0 1.63347,0.137701 1.95847,0.451201 0.18669,0.346801 0.23629,0.902403 0,1.701905 l -0.51048,1.526703 c -0.0464,0.1404 -0.096,0.451201 -0.1867,0.869702 -0.046,0.313201 -0.046,0.624902 0.0464,0.868802 l 4.24396,0 c -0.27904,-0.1395 -0.41936,-0.4536 -0.375,-0.937202 0.0956,-0.1398 0.14193,-0.349201 0.18669,-0.522301 0.0956,-0.209701 0.14032,-0.346801 0.18669,-0.555602 l 0.51331,-1.632004 c 0.23266,-0.973202 0.27903,-1.668904 0.14032,-2.084705 -0.18629,-0.418501 -0.65363,-0.764401 -1.4004,-0.937202 1.07339,-0.278401 1.86613,-0.660002 2.51855,-1.180803 0.7,-0.590702 1.21411,-1.320003 1.53911,-2.189105 0.5121,-1.285203 0.3254,-2.2920056 -0.42137,-2.9175076 -0.74637,-0.693302 -2.19153,-1.006802 -4.19597,-1.006802 l -7.13629,0 c -0.55968,0 -1.07137,0.1374 -1.58548,0.417901 -0.51291,0.277501 -0.79194,0.624001 -0.97863,1.039502 l 0,0 z m 2.2379,4.6563116 1.30605,-3.718809 4.75806,0 c 0.8867,0 1.49315,0.174 1.77218,0.522901 0.41976,0.242401 0.46734,0.729602 0.23589,1.353004 -0.23589,0.627601 -0.60726,1.078802 -1.16734,1.356002 -0.60645,0.311102 -1.35242,0.486002 -2.37782,0.486002 l -4.52702,0 0,8.93e-4 z M 161.1,9.2609484 l -4.57097,12.5061306 8.58226,0 c 2.14516,0 3.96492,-0.3489 5.45645,-1.078202 1.44839,-0.765002 2.42581,-1.806605 2.93952,-3.160808 0.28024,-0.834002 0.28024,-1.529404 0,-2.013605 -0.32541,-0.557702 -0.88508,-0.973202 -1.72581,-1.286703 0.84073,-0.242101 1.49153,-0.624902 2.09718,-1.076103 0.60806,-0.522901 0.98306,-1.078503 1.26008,-1.806305 0.37339,-1.111202 0.23306,-1.9803036 -0.56129,-2.6052056 -0.83871,-0.625201 -2.19153,-0.937502 -4.10444,-0.937502 l -6.90282,0 c -0.51371,0 -1.07339,0.174001 -1.49274,0.417901 -0.51008,0.3126 -0.8371,0.658801 -0.97742,1.040402 l 0,0 z m 2.2871,3.9612096 1.07137,-2.987107 4.33709,0 c 1.07339,0 1.77218,0.1371 2.00646,0.3468 0.37298,0.243901 0.46733,0.626702 0.28064,1.146004 -0.23306,0.486301 -0.56008,0.869102 -1.07339,1.111503 -0.56008,0.2784 -1.25846,0.3816 -2.2379,0.3816 l -4.38427,0 0,0.0012 z m -2.19315,6.042615 1.30645,-3.646809 4.5246,0 c 1.12137,0 1.86653,0.104701 2.28589,0.418501 0.375,0.278701 0.46572,0.764702 0.23266,1.424703 -0.23266,0.625202 -0.65202,1.076103 -1.25847,1.353604 -0.65202,0.313501 -1.49073,0.450301 -2.51814,0.450301 l -4.57299,0 z m 18.84315,-9.9669236 -4.57137,12.4701296 3.91693,0 5.0371,-13.9632336 -1.86452,0 c -0.56169,0 -1.12097,0.174 -1.53871,0.451201 -0.51371,0.2772 -0.83911,0.623401 -0.97943,1.041903 l 0,0 z m 13.01371,-0.520802 -11.00726,12.9909316 4.10403,0.0324 2.28548,-2.881507 7.27662,0 0.23266,2.849107 4.05766,0.0327 -0.27944,-2.500207 -1.39879,-11.4969276 -3.03064,0 c -0.93428,0 -1.68065,0.3468 -2.24032,0.973502 l 0,0 z m 2.47217,7.7784196 c -0.27903,0 -0.41935,0 -0.41935,0 l -4.80444,0 4.75807,-5.938515 0.46572,5.938515 z"
     id="path6475"
     style="fill:#5054a4;fill-opacity:1"
     inkscape:connector-curvature="0" /></svg>