<?xml version="1.0" encoding="UTF-8" standalone="no"?>
<svg
   xmlns:dc="http://purl.org/dc/elements/1.1/"
   xmlns:cc="http://creativecommons.org/ns#"
   xmlns:rdf="http://www.w3.org/1999/02/22-rdf-syntax-ns#"
   xmlns:svg="http://www.w3.org/2000/svg"
   xmlns="http://www.w3.org/2000/svg"
   xmlns:sodipodi="http://sodipodi.sourceforge.net/DTD/sodipodi-0.dtd"
   xmlns:inkscape="http://www.inkscape.org/namespaces/inkscape"
   version="1.0"
   id="Layer_1"
   x="0px"
   y="0px"
   width="200"
   height="30"
   viewBox="0 0 200 30"
   enable-background="new 0 0 100 15"
   xml:space="preserve"
   inkscape:version="0.91 r13725"
   sodipodi:docname="MS.svg"><metadata
     id="metadata11"><rdf:RDF><cc:Work
         rdf:about=""><dc:format>image/svg+xml</dc:format><dc:type
           rdf:resource="http://purl.org/dc/dcmitype/StillImage" /><dc:title></dc:title></cc:Work></rdf:RDF></metadata><defs
     id="defs9" /><sodipodi:namedview
     pagecolor="#ffffff"
     bordercolor="#666666"
     borderopacity="1"
     objecttolerance="10"
     gridtolerance="10"
     guidetolerance="10"
     inkscape:pageopacity="0"
     inkscape:pageshadow="2"
     inkscape:window-width="1280"
     inkscape:window-height="712"
     id="namedview7"
     showgrid="false"
     fit-margin-top="0"
     fit-margin-left="0"
     fit-margin-right="0"
     fit-margin-bottom="0"
     inkscape:zoom="2.2690946"
     inkscape:cx="100"
     inkscape:cy="14.999832"
     inkscape:window-x="0"
     inkscape:window-y="0"
     inkscape:window-maximized="1"
     inkscape:current-layer="Layer_1" /><g
     id="g3"
     style="fill:#5054a4;fill-opacity:1"
     transform="matrix(2.020202,0,0,2.0672069,-1.010101,-0.50370514)"><path
       d="m 95.207,3.445 c 0.393,0.466 0.967,0.632 1.334,0.364 0.23,-0.169 0.315,-0.476 0.265,-0.811 0.218,0.033 0.43,0.099 0.683,0.201 0.125,0.042 0.274,-0.481 0.08,-0.499 -2.084,-0.3 -3.241,1.382 -3.213,1.355 0.322,-0.242 0.588,-0.447 0.851,-0.61 m 1.189,0.192 C 96.121,3.86 95.662,3.721 95.339,3.365 95.774,3.096 96.143,2.969 96.54,2.974 96.621,3.23 96.551,3.514 96.396,3.637 M 86.013,4.379 C 86.372,3.203 86.997,2.137 87.809,1.252 91.4,-0.263 96.03,-0.252 99.5,2.541 97.323,1.431 90.885,0.25 86.013,4.379 m -0.208,3.85 C 85.647,7.38 85.62,6.504 85.74,5.645 88.281,3.062 92.084,1.362 96.076,2.197 93.891,2.202 88.653,3.699 85.805,8.229 m 1.359,3.181 C 86.742,10.818 86.393,10.166 86.143,9.472 87.655,6.271 90.57,3.483 94.488,2.876 92.538,3.611 88.474,6.602 87.164,11.41 m 2.466,2.279 c -0.602,-0.355 -1.146,-0.79 -1.634,-1.282 0.522,-3.384 2.589,-6.921 5.895,-8.757 -0.243,0.358 -0.355,0.777 -0.335,1.223 -1.927,1.954 -3.841,4.988 -3.926,8.816 m 3.058,1.067 c -0.652,-0.09 -1.282,-0.252 -1.879,-0.482 0.022,-3.063 1.015,-6.7 2.818,-8.93 0.1,0.391 0.29,0.792 0.597,1.194 1.427,-1.679 3.073,-2.866 5.117,-3.391 -2.787,1.058 -7.125,4.433 -6.653,11.609 m -77.352,-2.663 3.171,0 c 0.3,0 0.642,-0.237 0.77,-0.555 l 0.13,-0.311 -1.667,0 0.787,-1.848 4.413,0 0,0.006 -1.765,4.104 c -0.342,0.755 -0.879,1.294 -1.881,1.241 l -7.948,-0.01 4.048,-9.452 c 0.345,-0.762 0.877,-1.267 1.882,-1.246 l 7.96,0 -1.899,4.428 -2.741,0 0.774,-1.82 -3.476,0 c -0.122,0 -0.268,0.108 -0.314,0.235 l -2.244,5.228 z M 16.036,0.264 8.065,0.278 C 7.051,0.25 6.526,0.771 6.172,1.536 6.036,1.823 5.819,2.324 5.55,2.954 L 0.5,14.73 l 8.015,0 c 1.013,0.006 1.542,-0.497 1.89,-1.259 0.13,-0.287 0.357,-0.792 0.624,-1.417 l -6.536,-0.02 1.345,-3.131 3.69,0 1.146,-2.676 -3.683,0 1.304,-3.04 C 8.351,3.06 8.495,2.952 8.62,2.952 l 6.264,0 1.152,-2.688 z m 58.99,8.222 3.158,0 c 0.297,0 0.632,-0.256 0.77,-0.561 l 0.564,-1.294 -3.478,0 c -0.123,0 -0.266,0.108 -0.32,0.235 l -0.694,1.62 z m 0.19,2.722 -1.406,0 c -0.447,1.026 -0.814,1.866 -1.005,2.281 -0.342,0.755 -0.866,1.252 -1.881,1.239 l -1.454,0 1.494,-3.506 C 72,8.789 73.135,6.126 73.522,5.269 c 0.34,-0.755 0.879,-1.29 1.884,-1.243 l 7.953,-0.002 c -1.03,2.43 -2.174,5.096 -2.566,5.956 -0.343,0.751 -0.875,1.286 -1.879,1.241 l 2.476,3.508 -3.805,0 -2.369,-3.521 z M 34.537,4.026 35.999,4.024 c -1.032,2.43 -2.164,5.096 -2.554,5.956 -0.342,0.751 -0.874,1.286 -1.876,1.241 l -1.866,0 c -0.442,1.029 -0.808,1.854 -0.992,2.269 -0.34,0.755 -0.875,1.294 -1.879,1.241 l -1.464,0.006 1.506,-3.514 -3.258,0 c 1.037,-2.434 2.169,-5.097 2.554,-5.954 0.348,-0.755 0.877,-1.29 1.879,-1.243 l 1.457,-0.005 -1.887,4.461 3.16,0.004 c 0.3,0 0.645,-0.251 0.768,-0.561 0.362,-0.891 0.715,-1.778 1.119,-2.656 0.34,-0.755 0.862,-1.267 1.871,-1.243 m 30.64,10.703 1.472,0.002 c 1.007,0.053 1.537,-0.486 1.877,-1.241 l 4.063,-9.466 -1.47,0.002 C 70.112,3.98 69.58,4.514 69.24,5.269 c -0.395,0.857 -1.531,3.52 -2.563,5.954 l -1.5,3.506 z m -26.792,-6.243 3.113,0 c 0.306,0 0.635,-0.256 0.77,-0.561 l 0.562,-1.295 -3.436,0 c -0.122,0 -0.268,0.11 -0.322,0.235 l -0.687,1.621 z m -1.159,2.722 5.115,0.013 c 1.034,0 1.531,-0.49 1.874,-1.241 0.39,-0.86 1.523,-3.526 2.551,-5.956 L 38.805,4.026 C 37.796,3.997 37.274,4.514 36.929,5.269 l -4.038,9.461 1.465,0 c 1.019,0.018 1.534,-0.486 1.879,-1.241 0.189,-0.415 0.548,-1.255 0.991,-2.281 m 9.662,3.518 1.475,0.005 c 0.999,0.053 1.528,-0.486 1.871,-1.241 0.377,-0.835 1.456,-3.385 2.463,-5.764 0.03,-0.064 0.436,-1.031 0.468,-1.095 l 3.24,0 1.1,-2.602 -7.928,-0.005 C 48.567,3.98 48.038,4.515 47.698,5.27 l -0.578,1.371 3.224,-0.01 -3.456,8.095 z m 13.017,-6.24 3.103,0 c 0.298,0 0.64,-0.256 0.77,-0.561 l 0.558,-1.294 -3.416,0 c -0.124,0 -0.267,0.108 -0.319,0.235 l -0.696,1.62 z m 2.471,2.735 -3.63,0 c -0.445,1.024 -0.808,1.854 -0.995,2.269 -0.347,0.755 -0.874,1.294 -1.914,1.241 l -1.421,-0.002 1.489,-3.506 C 56.941,8.789 58.076,6.126 58.47,5.269 58.81,4.514 59.289,4.021 60.347,4.026 l 7.933,0 -4.05,9.463 c -0.34,0.755 -0.875,1.294 -1.882,1.241 l -1.424,0 1.452,-3.509 z"
       id="path5"
       style="clip-rule:evenodd;fill:#5054a4;fill-opacity:1;fill-rule:evenodd"
       inkscape:connector-curvature="0" /></g></svg>