<?xml version="1.0" encoding="UTF-8" standalone="no"?>
<!-- Created with Inkscape (http://www.inkscape.org/) -->

<svg
   xmlns:dc="http://purl.org/dc/elements/1.1/"
   xmlns:cc="http://creativecommons.org/ns#"
   xmlns:rdf="http://www.w3.org/1999/02/22-rdf-syntax-ns#"
   xmlns:svg="http://www.w3.org/2000/svg"
   xmlns="http://www.w3.org/2000/svg"
   xmlns:sodipodi="http://sodipodi.sourceforge.net/DTD/sodipodi-0.dtd"
   xmlns:inkscape="http://www.inkscape.org/namespaces/inkscape"
   width="200.00151"
   height="30"
   id="svg2"
   version="1.1"
   inkscape:version="0.91 r13725"
   sodipodi:docname="OU.svg">
  <defs
     id="defs4" />
  <sodipodi:namedview
     id="base"
     pagecolor="#ffffff"
     bordercolor="#666666"
     borderopacity="1.0"
     inkscape:pageopacity="0.0"
     inkscape:pageshadow="2"
     inkscape:zoom="1.0405179"
     inkscape:cx="26.479682"
     inkscape:cy="53.442394"
     inkscape:document-units="px"
     inkscape:current-layer="layer1"
     showgrid="false"
     inkscape:window-width="1280"
     inkscape:window-height="712"
     inkscape:window-x="0"
     inkscape:window-y="0"
     inkscape:window-maximized="1"
     fit-margin-top="0"
     fit-margin-left="0"
     fit-margin-right="0"
     fit-margin-bottom="0" />
  <metadata
     id="metadata7">
    <rdf:RDF>
      <cc:Work
         rdf:about="">
        <dc:format>image/svg+xml</dc:format>
        <dc:type
           rdf:resource="http://purl.org/dc/dcmitype/StillImage" />
        <dc:title></dc:title>
        <cc:license
           rdf:resource="http://creativecommons.org/licenses/by-sa/3.0/" />
      </cc:Work>
      <cc:License
         rdf:about="http://creativecommons.org/licenses/by-sa/3.0/">
        <cc:permits
           rdf:resource="http://creativecommons.org/ns#Reproduction" />
        <cc:permits
           rdf:resource="http://creativecommons.org/ns#Distribution" />
        <cc:requires
           rdf:resource="http://creativecommons.org/ns#Notice" />
        <cc:requires
           rdf:resource="http://creativecommons.org/ns#Attribution" />
        <cc:permits
           rdf:resource="http://creativecommons.org/ns#DerivativeWorks" />
        <cc:requires
           rdf:resource="http://creativecommons.org/ns#ShareAlike" />
      </cc:License>
    </rdf:RDF>
  </metadata>
  <g
     inkscape:label="Layer 1"
     inkscape:groupmode="layer"
     id="layer1"
     transform="translate(-285.71352,-420.21933)">
    <g
       id="g4211"
       transform="matrix(0.30769464,0,0,0.55483797,267.03206,193.74312)">
      <path
         inkscape:connector-curvature="0"
         d="m 60.714285,410.51575 64.202255,0 c -15.87139,9.14614 -16.67802,26.7211 -12.28454,46.98485 L 60.714285,410.51575"
         style="fill:#5054a4;fill-opacity:1;fill-rule:nonzero;stroke:none"
         id="path2830" />
      <path
         inkscape:connector-curvature="0"
         d="m 74.703011,418.49621 3.138284,0 0,-3.67633 -3.138284,0 0,3.67633 z"
         style="fill:#ffffff;fill-opacity:1;fill-rule:nonzero;stroke:none"
         id="path2832" />
      <path
         inkscape:connector-curvature="0"
         d="m 79.455421,412.75745 3.675845,0 0,-3.3178 -3.675845,0 0,3.3178 z"
         style="fill:#ffffff;fill-opacity:1;fill-rule:nonzero;stroke:none"
         id="path2834" />
      <path
         inkscape:connector-curvature="0"
         d="m 79.096375,424.50397 4.124871,0 0,-4.21389 -4.124871,0 0,4.21389 z"
         style="fill:#ffffff;fill-opacity:1;fill-rule:nonzero;stroke:none"
         id="path2836" />
      <path
         inkscape:connector-curvature="0"
         d="m 84.297375,419.84123 5.020967,0 0,-5.46951 -5.020967,0 0,5.46951 z"
         style="fill:#ffffff;fill-opacity:1;fill-rule:nonzero;stroke:none"
         id="path2838" />
      <path
         inkscape:connector-curvature="0"
         d="m 84.476463,429.97373 4.751949,0 0,-4.48341 -4.751949,0 0,4.48341 z"
         style="fill:#ffffff;fill-opacity:1;fill-rule:nonzero;stroke:none"
         id="path2840" />
      <path
         inkscape:connector-curvature="0"
         d="m 90.214973,425.04198 4.3939,0 0,-4.3939 -4.3939,0 0,4.3939 z"
         style="fill:#ffffff;fill-opacity:1;fill-rule:nonzero;stroke:none"
         id="path2842" />
      <path
         inkscape:connector-curvature="0"
         d="m 95.594936,419.57223 5.110974,0 0,-5.02097 -5.110974,0 0,5.02097 z"
         style="fill:#ffffff;fill-opacity:1;fill-rule:nonzero;stroke:none"
         id="path2844" />
      <path
         inkscape:connector-curvature="0"
         d="m 101.9615,413.56446 4.66243,0 0,-5.02194 -4.66243,0 0,5.02194 z"
         style="fill:#ffffff;fill-opacity:1;fill-rule:nonzero;stroke:none"
         id="path2846" />
      <path
         inkscape:connector-curvature="0"
         d="m 106.893,431.76709 6.09754,0 0,-6.72462 -6.09754,0 0,6.72462 z"
         style="fill:#ffffff;fill-opacity:1;fill-rule:nonzero;stroke:none"
         id="path2848" />
      <path
         inkscape:connector-curvature="0"
         d="m 100.61635,437.32651 8.69778,0 0,-6.18706 -8.69778,0 0,6.18706 z"
         style="fill:#ffffff;fill-opacity:1;fill-rule:nonzero;stroke:none"
         id="path2850" />
      <path
         inkscape:connector-curvature="0"
         d="m 90.304517,413.65413 4.304381,0 0,-3.85536 -4.304381,0 0,3.85536 z"
         style="fill:#ffffff;fill-opacity:1;fill-rule:nonzero;stroke:none"
         id="path2852" />
      <path
         inkscape:connector-curvature="0"
         d="m 90.304517,436.87693 5.290482,0 0,-5.73804 -5.290482,0 0,5.73804 z"
         style="fill:#ffffff;fill-opacity:1;fill-rule:nonzero;stroke:none"
         id="path2854" />
      <path
         inkscape:connector-curvature="0"
         d="m 95.594936,442.07893 5.738524,0 0,-5.64902 -5.738524,0 0,5.64902 z"
         style="fill:#ffffff;fill-opacity:1;fill-rule:nonzero;stroke:none"
         id="path2856" />
      <path
         inkscape:connector-curvature="0"
         d="m 105.45831,441.72025 5.739,0 0,-5.73901 -5.739,0 0,5.73901 z"
         style="fill:#ffffff;fill-opacity:1;fill-rule:nonzero;stroke:none"
         id="path2858" />
      <path
         inkscape:connector-curvature="0"
         d="m 105.99644,461.08857 8.33973,0 0,-14.97533 -8.33973,0 0,14.97533 z"
         style="fill:#ffffff;fill-opacity:1;fill-rule:nonzero;stroke:none"
         id="path2860" />
      <path
         inkscape:connector-curvature="0"
         d="m 100.88548,446.91976 11.29803,0 0,-6.27609 -11.29803,0 0,6.27609 z"
         style="fill:#ffffff;fill-opacity:1;fill-rule:nonzero;stroke:none"
         id="path2862" />
      <path
         inkscape:connector-curvature="0"
         d="m 98.285229,449.70072 4.573411,0 0,-4.30439 -4.573411,0 0,4.30439 z"
         style="fill:#ffffff;fill-opacity:1;fill-rule:nonzero;stroke:none"
         id="path2864" />
      <path
         inkscape:connector-curvature="0"
         d="m 93.173772,444.49996 3.676817,0 0,-3.2278 -3.676817,0 0,3.2278 z"
         style="fill:#ffffff;fill-opacity:1;fill-rule:nonzero;stroke:none"
         id="path2866" />
      <path
         inkscape:connector-curvature="0"
         d="m 87.704266,439.29921 3.586825,0 0,-3.22829 -3.586825,0 0,3.22829 z"
         style="fill:#ffffff;fill-opacity:1;fill-rule:nonzero;stroke:none"
         id="path2868" />
      <path
         inkscape:connector-curvature="0"
         d="m 95.325932,431.58775 6.187068,0 0,-6.18754 -6.187068,0 0,6.18754 z"
         style="fill:#ffffff;fill-opacity:1;fill-rule:nonzero;stroke:none"
         id="path2870" />
      <path
         inkscape:connector-curvature="0"
         d="m 100.70589,426.118 6.18707,0 0,-6.18755 -6.18707,0 0,6.18755 z"
         style="fill:#ffffff;fill-opacity:1;fill-rule:nonzero;stroke:none"
         id="path2872" />
      <path
         inkscape:connector-curvature="0"
         d="m 106.71391,420.55858 5.82853,0 0,-6.18658 -5.82853,0 0,6.18658 z"
         style="fill:#ffffff;fill-opacity:1;fill-rule:nonzero;stroke:none"
         id="path2874" />
      <path
         inkscape:connector-curvature="0"
         d="m 112.3635,414.37148 7.08364,0 0,-6.18707 -7.08364,0 0,6.18707 z"
         style="fill:#ffffff;fill-opacity:1;fill-rule:nonzero;stroke:none"
         id="path2876" />
      <path
         inkscape:connector-curvature="0"
         d="m 505.91353,434.36747 0.0897,0 c 4.66274,0 7.98046,-0.71735 10.04283,-2.33137 1.97269,-1.52436 3.04871,-4.12474 3.04871,-7.62179 0,-1.7037 -0.35867,-3.13839 -0.98635,-4.39374 -0.62767,-1.34502 -1.52436,-2.33137 -2.77971,-3.13839 -0.89668,-0.62767 -1.9727,-1.07601 -3.22805,-1.34502 -1.25536,-0.269 -3.31772,-0.44834 -6.1871,-0.44834 -0.0897,0 -0.0897,0 -0.17934,0 l -12.91221,0 0,19.27865 13.09155,0 z m -360.6427,10.31183 4.39374,0 c 0,2.60038 -0.53801,5.02142 -1.52436,7.26312 -0.98635,2.06237 -2.42104,3.94415 -4.2144,5.64785 -3.40739,3.04871 -7.97972,4.66398 -13.62919,4.66398 -6.54564,0 -11.6566,-2.33137 -15.51246,-7.08502 -3.76631,-4.6615 -5.64946,-11.11761 -5.64946,-19.27741 0,-8.15979 1.88315,-14.52623 5.73951,-19.18897 3.76581,-4.66275 8.96631,-6.99412 15.51183,-6.99412 5.47001,0 9.95304,1.43469 13.27076,4.39374 1.79336,1.43469 3.13839,3.13963 4.12473,5.02142 0.89669,1.97269 1.34503,4.12473 1.34503,6.54577 l -4.30407,0 c -0.44834,-3.67639 -1.88303,-6.63544 -4.48341,-8.69781 -2.59988,-2.15203 -5.9176,-3.13838 -9.95304,-3.13838 -5.20037,0 -9.32523,1.88303 -12.19461,5.73876 -2.95917,3.85573 -4.39386,9.32548 -4.39386,16.22993 0,6.99411 1.43469,12.55353 4.39386,16.49893 2.95929,3.9454 7.08366,5.9181 12.3742,5.9181 4.30382,0 7.71171,-1.25536 10.31146,-3.6764 1.34502,-1.25659 2.42104,-2.60037 3.22805,-4.30531 0.71735,-1.61278 1.16569,-3.49581 1.16569,-5.55818 z m 529.8452,0.98635 4.57308,0 c 0,3.9454 1.25535,6.90445 3.67639,9.05524 2.51071,2.15328 5.91809,3.22929 10.31183,3.22929 3.85573,0 6.90445,-0.80826 9.14615,-2.60162 2.2417,-1.70369 3.31772,-4.03382 3.31772,-7.08378 0,-2.86813 -0.71734,-5.02017 -2.33137,-6.45486 -1.52436,-1.52436 -4.57307,-2.86938 -9.23582,-4.12598 l -4.75116,-1.16444 c -5.02266,-1.25535 -8.60939,-2.95905 -10.58084,-4.93175 -1.9727,-2.06236 -2.96029,-4.93174 -2.96029,-8.51847 0,-4.03506 1.52435,-7.26311 4.4834,-9.68415 2.95905,-2.51071 6.90445,-3.6764 11.8362,-3.6764 5.20075,0 9.32548,1.34502 12.28453,4.03507 2.95905,2.69004 4.4834,6.36644 4.4834,11.11885 l -4.66274,0 c 0,-3.49706 -1.07602,-6.1871 -3.22805,-8.1598 -2.15204,-1.9727 -5.20075,-2.95905 -9.05648,-2.95905 -3.67639,0 -6.54577,0.80701 -8.51847,2.42104 -1.9727,1.70369 -3.04872,4.03506 -3.04872,6.99411 0,2.33137 0.71735,4.12473 1.9727,5.38009 1.25535,1.34502 3.49706,2.33137 6.54577,3.13838 l 5.82843,1.52436 c 5.64909,1.43469 9.68416,3.22805 12.01553,5.46976 2.33137,2.15203 3.49706,5.20075 3.49706,9.14615 0,4.39249 -1.52436,7.79988 -4.57308,10.4015 -3.04871,2.60037 -7.17345,3.85573 -12.46387,3.85573 -5.91809,0 -10.49117,-1.34503 -13.71922,-4.12474 -3.22681,-2.78095 -4.84208,-6.72511 -4.84208,-11.92586 l 0,-0.35867 z m -40.88866,15.06424 0,-49.7658 32.54953,0 0,4.12473 -27.97646,0 0,18.11296 25.64508,0 0,3.9454 -25.64508,0 0,19.45798 28.87438,0 0,4.12473 -33.44745,0 z m -48.77822,0 0,-49.7658 5.02017,0 28.15579,42.68078 0,-42.68078 4.39499,0 0,49.7658 -5.02266,0 -28.06488,-42.68202 0,42.68202 -4.48341,0 z m -16.14026,0 0,-49.7658 4.6615,0 0,49.7658 -4.6615,0 z m -36.31559,0 0,-49.7658 4.75241,0 0,45.64107 25.37608,0 0,4.12473 -30.12849,0 z m -59.53963,0 0,-49.7658 4.75241,0 0,49.7658 -4.75241,0 z m -140.15003,0 0,-49.7658 4.66274,0 0,49.7658 -4.66274,0 z m -26.63144,0 0,-45.64107 -15.42167,0 0,-4.12473 35.597,0 0,4.12473 -15.42292,0 0,45.64107 -4.75241,0 z m -143.37808,-26.36242 13.27088,0 c 4.57308,0 7.8908,-0.71735 9.95316,-2.33137 2.06237,-1.52436 3.13839,-4.12474 3.13839,-7.62179 0,-1.7037 -0.35867,-3.13839 -0.98635,-4.39374 -0.62768,-1.34502 -1.52436,-2.33137 -2.77971,-3.13839 -0.89668,-0.62767 -1.9727,-1.07601 -3.31772,-1.34502 -1.25536,-0.269 -3.31772,-0.44834 -6.09744,-0.44834 -0.0897,0 -0.17933,0 -0.17933,0 l -13.00188,0 0,19.27865 z m 13.18121,4.12473 -13.18121,0 0,22.23769 -4.57307,0 0,-49.7658 16.5886,0 c 0.44834,0 0.80701,0 1.16568,0 1.52436,0 2.77972,0.0897 3.85573,0.0897 1.34503,0.0897 2.42104,0.17934 3.40739,0.44835 1.7037,0.269 3.13839,0.80701 4.48341,1.52435 1.9727,1.07602 3.40739,2.60038 4.4834,4.57308 1.07602,1.9727 1.61403,4.12473 1.61403,6.63544 0,3.04871 -0.62768,5.64909 -1.9727,7.71146 -1.43469,2.06236 -3.40739,3.58672 -6.09743,4.4834 2.06237,0.71735 3.58672,1.79337 4.39374,3.13839 0.89668,1.34502 1.52436,4.2144 1.88303,8.4288 l 0.62768,7.44246 c 0,0.62767 0,1.07601 0.0897,1.52435 0.0897,0.35743 0.26901,0.89544 0.53801,1.52312 0.17934,0.62767 0.53801,1.16693 0.98635,1.52435 l 0,0.71859 -5.11108,0 c -0.0897,-0.27024 -0.26901,-0.538 -0.35867,-0.80701 -0.0897,-0.269 -0.17934,-0.71859 -0.35868,-1.34502 -0.0897,-0.62768 -0.17933,-1.07726 -0.17933,-1.2566 -0.0897,-0.53676 -0.17934,-1.07477 -0.17934,-1.70369 l -0.53801,-6.54453 c 0,-2.15328 -0.269,-3.9454 -0.71734,-5.38009 -0.44834,-1.5256 -0.98635,-2.60037 -1.7037,-3.31772 -1.34502,-1.25535 -3.94539,-1.88303 -7.80112,-1.88303 l -1.34503,0 z m 28.96281,-2.60038 c 0,6.81478 1.61402,12.19362 4.84208,16.22994 3.22805,3.85572 7.62179,5.82842 13.18121,5.82842 0.0897,0 0.0897,0 0.0897,0 5.46975,0 9.86225,-1.9727 13.18121,-5.82842 3.31772,-3.9454 4.93175,-9.41516 4.93175,-16.22994 0,-6.81477 -1.61403,-12.19486 -4.93175,-16.22993 -3.22805,-3.94539 -7.62179,-6.00776 -13.18121,-6.00776 0,0 0,0 -0.0897,0 -5.46975,0 -9.86349,2.06237 -13.09155,6.09743 -3.31772,3.9454 -4.93174,9.41516 -4.93174,16.14026 z m 18.11296,26.1831 c 0,0 0,0 -0.0897,0 -6.99411,0 -12.46511,-2.33262 -16.5886,-7.08378 -4.12474,-4.57308 -6.1871,-10.93952 -6.1871,-19.09932 0,-8.07013 2.06236,-14.43656 6.1871,-19.09931 4.12349,-4.75241 9.59449,-7.08378 16.5886,-7.08378 0.0897,0 0.0897,0 0.0897,0 6.99411,0 12.55354,2.33137 16.5886,7.08378 4.12474,4.66275 6.1871,11.02918 6.1871,19.09931 0,8.07014 -2.06236,14.43657 -6.1871,19.09932 -4.03506,4.75116 -9.59449,7.08378 -16.5886,7.08378 z m 37.83995,-20.62367 19.27864,0 -9.6854,-25.55542 -9.59324,25.55542 z m 9.59324,4.03506 -11.02918,0 -5.82718,15.24358 -4.75241,0 18.91997,-49.7658 5.46851,0 18.92122,49.7658 -4.84332,0 -5.64909,-15.24358 -11.20852,0 z m 84.55829,-4.03506 19.27615,0 -9.59324,-25.55542 -0.0897,0 -9.59324,25.55542 z m 9.68291,4.03506 -11.11885,0 -5.73876,15.24358 -4.84208,0 18.91998,-49.7658 5.46975,0 18.91998,49.7658 -4.75241,0 -5.73876,-15.24358 -11.11885,0 z m 71.37582,-4.03506 19.27741,0 -9.59449,-25.55542 -9.68292,25.55542 z m 9.68292,4.03506 -11.11885,0 -5.73876,15.24358 -4.75241,0 18.8303,-49.7658 5.47101,0 18.91872,49.7658 -4.75241,0 -5.64909,-15.24358 -11.20851,0 z m 59.6293,-34.52222 c 1.52436,0 2.86938,0.0897 3.9454,0.0897 1.25535,0.0897 2.42103,0.17934 3.31772,0.44835 1.70369,0.269 3.22805,0.80701 4.4834,1.52435 1.9727,1.07602 3.49706,2.60038 4.57308,4.57308 1.07601,1.9727 1.61402,4.12473 1.61402,6.63544 0,3.04871 -0.71734,5.64909 -2.06236,7.71146 -1.34503,2.06236 -3.40739,3.58672 -6.00777,4.4834 2.06237,0.71735 3.49581,1.79337 4.39374,3.13839 0.80701,1.34502 1.43469,4.2144 1.79336,8.4288 l 0.62768,7.44246 c 0,0.62767 0.0897,1.07601 0.17934,1.52435 0.0897,0.35743 0.17933,0.89544 0.44834,1.52312 0.269,0.62767 0.538,1.16693 0.98635,1.52435 l 0,0.71859 -5.02142,0 c -0.17934,-0.27024 -0.269,-0.538 -0.35867,-0.80701 -0.0897,-0.269 -0.26901,-0.71859 -0.35867,-1.34502 -0.17934,-0.62768 -0.26901,-1.07726 -0.26901,-1.2566 -0.0897,-0.53676 -0.17934,-1.07477 -0.17934,-1.70369 l -0.538,-6.54453 c 0,-2.15328 -0.17934,-3.9454 -0.62768,-5.38009 -0.44834,-1.5256 -1.07602,-2.60037 -1.79336,-3.31772 -1.34503,-1.25535 -3.85573,-1.88303 -7.71146,-1.88303 l -14.52624,0 0,22.23769 -4.57307,0 0,-49.7658 16.5886,0 c 0.35867,0 0.71735,0 1.07602,0"
         style="fill:#5054a4;fill-opacity:1;fill-rule:nonzero;stroke:none"
         id="path2878" />
    </g>
  </g>
</svg>
