<?xml version="1.0" encoding="UTF-8" standalone="no"?>
<svg
   xmlns:dc="http://purl.org/dc/elements/1.1/"
   xmlns:cc="http://creativecommons.org/ns#"
   xmlns:rdf="http://www.w3.org/1999/02/22-rdf-syntax-ns#"
   xmlns:svg="http://www.w3.org/2000/svg"
   xmlns="http://www.w3.org/2000/svg"
   xmlns:sodipodi="http://sodipodi.sourceforge.net/DTD/sodipodi-0.dtd"
   xmlns:inkscape="http://www.inkscape.org/namespaces/inkscape"
   version="1.1"
   width="200"
   height="30"
   id="svg2"
   inkscape:version="0.91 r13725"
   sodipodi:docname="RJ.svg">
  <metadata
     id="metadata18">
    <rdf:RDF>
      <cc:Work
         rdf:about="">
        <dc:format>image/svg+xml</dc:format>
        <dc:type
           rdf:resource="http://purl.org/dc/dcmitype/StillImage" />
        <dc:title></dc:title>
      </cc:Work>
    </rdf:RDF>
  </metadata>
  <defs
     id="defs16" />
  <sodipodi:namedview
     pagecolor="#ffffff"
     bordercolor="#666666"
     borderopacity="1"
     objecttolerance="10"
     gridtolerance="10"
     guidetolerance="10"
     inkscape:pageopacity="0"
     inkscape:pageshadow="2"
     inkscape:window-width="847"
     inkscape:window-height="480"
     id="namedview14"
     showgrid="false"
     fit-margin-top="0"
     fit-margin-left="0"
     fit-margin-right="0"
     fit-margin-bottom="0"
     inkscape:zoom="0.55357143"
     inkscape:cx="100.00062"
     inkscape:cy="14.998411"
     inkscape:window-x="0"
     inkscape:window-y="0"
     inkscape:window-maximized="0"
     inkscape:current-layer="svg2" />
  <g
     id="g4"
     style="opacity:1;fill:#5054a4;fill-opacity:1"
     transform="matrix(0.71556369,0,0,0.46315722,-0.17847436,-0.05187361)">
    <path
       d="m 160.958,13.442 c 0.641,-3 0.549,-6.333 0.927,-9.313 l -0.343,0.083 -0.214,1.305 c -0.683,5.434 -6.021,7.075 -9.969,9.87 1.684,-0.414 3.367,-0.912 4.882,-1.479 1.988,-0.742 3.516,-2.506 4.53,-4.048 0.156,0.985 -0.448,2.293 0.187,3.582 m -1.057,12.207 c 0.523,1.097 1.083,2.104 2.34,2.5 1.05,0.34 2.903,-0.47 4,-4.562 0.518,0.86 0.781,1.558 1.553,2.271 3.423,3.341 6.043,-1.884 9.114,-2.448 0.376,-0.72 0.575,-1.731 0.623,-2.543 -1.075,0.043 -2.066,0.885 -3.333,0.514 -0.361,-0.116 -0.786,-0.297 -0.813,-0.843 0.513,-5.099 -0.404,-10.375 -3.951,-13.894 -1.603,4.379 0.644,8.906 0.844,13.321 0.979,-3.096 0.23,-6.302 -0.336,-9.291 2.376,3.252 2.986,7.233 2.589,11.502 -0.361,2.321 -2.448,2.193 -3.389,1.531 -3.673,-2.873 -3.176,-8.66 -4.903,-12.073 -0.854,1.679 -0.183,3.53 0.186,5.145 0.488,2.047 2.041,6.039 -0.154,8.016 -1.407,1.253 -2.942,0.242 -3.464,-0.997 -1.351,-3.261 -1.662,-6.717 -2.354,-10.241 l -0.335,-0.287 c -0.209,0.759 -0.439,1.672 -0.349,2.547 0.235,1.625 0.949,5.818 1.735,8.553 -1.021,2.464 -2.522,2.821 -3.288,2.671 -1.685,-0.748 -1.188,-2.731 -1.215,-4.149 -3.837,2.136 -7.775,4.425 -10.98,5.384 -7.546,2.269 -16.92,4.019 -24.462,0.444 -2.722,-1.329 -4.995,-3.958 -4.938,-7.127 -0.057,-0.329 -0.414,-0.51 -0.755,-0.466 -3.075,1.124 -3.717,4.503 -4.717,7.107 -1.092,2.819 -3.715,0.909 -3.927,-0.188 -0.348,-4.148 3.674,-6.731 6.009,-9.413 1.703,-1.938 2.541,-4.234 2.774,-6.905 -1.31,0.811 -3.163,1.14 -4.591,1.616 -0.865,0.445 -0.781,2.009 -1.046,2.907 l 4.09,-1.269 0.125,-0.042 c -1.456,3.895 -6.605,5.194 -7.806,9.523 -0.575,2.175 -0.623,5.62 1.062,7.247 0.693,0.583 2.002,1.139 3.006,0.539 2.019,-1.978 1.615,-4.805 3.266,-6.905 0.518,-0.648 1.249,-1.517 1.895,-1.273 l 0.378,1.976 c 0.979,3.888 5.176,6.065 8.759,6.854 9.192,1.501 18.431,-0.628 26.191,-4.426 1.646,-0.773 3.011,-1.837 4.616,-2.575 0.126,2.135 0.892,3.673 2.188,3.926 0.968,0.185 2.459,-0.752 3.763,-4.177 M 25.633,57.356 c -0.15,0.201 -0.332,0.358 -0.523,0.463 -2.044,1.365 -6.574,0.578 -7.951,-1.235 -0.709,-1.023 -0.926,-2.546 -0.921,-3.953 0,-1.078 0.135,-2.413 0.75,-3.418 1.382,-2.167 6.952,-1.219 8.495,0.766 1.423,2.092 0.869,6.43 0.15,7.377 M 4.255,52.89 C 4.017,52.88 3.893,52.699 3.893,52.485 l 0,-4.373 C 5.492,47.59 7.93,47.548 8.66,48.749 9.276,49.731 9.235,51.711 8.52,52.395 7.588,53.206 4.566,52.942 4.255,52.89 m 20.223,-6.165 c -3.224,-0.596 -6.967,-0.145 -9.099,2.005 -1.678,1.666 -2.428,6.841 -0.083,9.646 l -0.015,0 0.036,0.021 0.191,0.227 c 0.088,0.114 0.155,0.248 0.135,0.373 -0.456,1.263 -2.122,1.253 -2.671,0.901 -2.21,-1.75 -2.842,-4.763 -4.716,-5.973 0.968,-0.592 2.02,-1.295 2.634,-2.324 0.529,-1.166 0.549,-2.938 -0.444,-3.89 -0.802,-0.9 -2.422,-1.22 -4.286,-1.22 l -5.098,0 c -1.051,0 0.404,0.232 0.404,1.18 0.176,4.364 0.026,12.789 0.026,12.789 l 3.446,0 c 0.006,-0.336 -0.859,-0.357 -1.009,-0.894 0,0 -0.062,-4.664 -0.062,-4.96 -0.036,-0.316 0.228,-0.316 0.228,-0.316 0.952,-0.049 1.713,-0.17 2.241,0.513 0.518,0.705 2.656,5.446 5.518,6.265 1.714,0.423 3.546,-0.348 4.799,-1.325 l 0.171,-0.149 c 2.402,1.236 5.947,1.105 8.24,-0.234 3.505,-2.023 3.835,-6.345 2.785,-9.768 -0.518,-1.697 -1.948,-2.536 -3.371,-2.867 m 11.698,12.812 -0.062,-4.106 c 2.215,-2.759 4.384,-5.657 5.316,-8.938 l -2.413,0 c -1.056,0 0.394,0.232 0.394,1.18 -0.186,2.003 -2.127,4.435 -3.84,6.461 l -4.534,-7.641 -3.401,0 -0.077,0.065 c -0.016,0.267 0.667,0.167 1.273,1.031 1.734,2.552 3.4,5.239 4.881,7.959 0,1.426 0.041,4.913 0.041,4.913 l 3.411,0 c 0,-0.475 -0.915,-0.394 -0.989,-0.924 m 88.978,-5.519 c 1.139,-2.69 1.527,-4.917 1.527,-4.917 0.782,1.475 2.049,4.917 2.049,4.917 l -3.576,0 z m 8.898,4.85 c -2.443,-3.908 -4.167,-8.206 -5.854,-12.376 l -3.374,0 -0.072,0.065 c 0,0.119 1.251,0.457 0.942,2.106 -0.492,2.455 -1.59,5.174 -4.645,11.266 l -0.217,0.491 c -0.031,0.03 -0.031,0.04 0.228,0.04 l 2.78,0 0.068,-0.066 c 0,-0.249 -1.166,-0.249 -0.974,-1.149 0.279,-0.995 1.169,-2.774 1.77,-4.172 l 4.555,0 c 0.875,1.646 1.636,3.401 2.65,4.935 0.119,0.138 0.243,0.334 0.33,0.413 0.094,0.057 0.435,0.04 0.622,0.04 0.456,0.017 2.702,0 2.702,0 l 0.094,-0.066 c 0.009,-0.227 -0.761,-0.27 -1.605,-1.527 m -16.284,-0.936 c -1.708,1.471 -5.585,0.797 -7.93,0.562 l 0,-10.242 c 0.953,-0.326 1.527,-0.348 3.214,-0.279 1.796,0.078 4.219,0.614 5.162,2.215 1.07,1.779 1.417,6.129 -0.446,7.744 M 97.027,52.89 c -0.249,-0.01 -0.346,-0.191 -0.346,-0.405 l 0,-4.373 c 1.583,-0.522 4.012,-0.564 4.747,0.637 0.62,0.982 0.574,2.962 -0.13,3.646 -0.939,0.811 -3.961,0.547 -4.271,0.495 m 23.821,-2.454 c -1.325,-4.581 -7.288,-3.943 -12.144,-3.943 l -1.714,0 c -0.942,0 0.198,0.185 0.404,0.946 0.14,5.523 0.011,10.036 0.011,10.036 -0.011,0.475 -0.011,0.958 -0.011,1.445 -0.052,1.03 -0.979,1.414 -1.651,0.979 -2.226,-1.75 -2.832,-4.763 -4.71,-5.973 0.958,-0.592 2.019,-1.295 2.634,-2.324 0.523,-1.166 0.538,-2.938 -0.445,-3.89 -0.807,-0.9 -2.422,-1.22 -4.286,-1.22 l -5.098,0 c -1.046,0 0.403,0.232 0.403,1.18 0.191,4.364 0.021,12.789 0.021,12.789 l 3.441,0 c 0.016,-0.336 -0.87,-0.357 -1.005,-0.894 0,0 -0.052,-4.664 -0.076,-4.96 0,-0.316 0.252,-0.316 0.252,-0.316 0.964,-0.049 1.704,-0.17 2.232,0.513 0.527,0.705 2.665,5.446 5.522,6.265 0.358,0.097 0.73,0.145 1.113,0.118 1.025,0.035 2.008,-0.347 2.868,-0.874 3.441,0.165 7.251,0.714 10.062,-1.444 2.978,-2.016 2.902,-5.415 2.177,-8.433 m -31.647,6.92 c -0.171,0.201 -0.316,0.358 -0.523,0.463 -2.055,1.365 -6.579,0.578 -7.972,-1.235 -0.688,-1.023 -0.916,-2.546 -0.894,-3.953 -0.011,-1.078 0.128,-2.413 0.75,-3.418 1.351,-2.167 6.946,-1.219 8.467,0.766 1.434,2.092 0.891,6.43 0.172,7.377 M 88.135,46.725 c -3.23,-0.596 -6.978,-0.145 -9.095,2.005 -1.978,1.945 -2.65,8.627 1.278,10.764 2.387,1.337 6.072,1.245 8.406,-0.134 3.488,-2.023 3.814,-6.345 2.78,-9.768 -0.533,-1.697 -1.941,-2.536 -3.369,-2.867 m 58.707,-0.167 c -0.021,0.254 0.901,0.327 1.011,0.945 0.605,3.149 0.353,10.086 0.353,10.086 -3.837,-3.189 -6.964,-7.092 -10.1,-10.961 -0.191,-0.178 -0.694,-0.136 -0.988,-0.136 l -2.071,0 -0.094,0.065 c -0.015,0.267 0.533,0.235 1.14,0.945 0.32,0.408 0.533,0.893 0.553,1.318 0.094,1.47 0.037,2.515 -0.015,4.193 -0.031,1.671 -0.254,6.822 -0.254,6.993 l 0.079,0.413 c 0.093,0.083 0.439,0.04 0.622,0.04 l 1.697,0 0.072,-0.066 c 0,-0.249 -0.859,-0.27 -0.967,-1.149 -0.058,-0.455 -0.114,-2.092 -0.166,-3.58 -0.046,-1.927 0.026,-3.402 0.124,-5.104 3.193,3.712 10.467,10.604 10.953,11 0.325,0.222 0.331,0.04 0.331,0.04 0.344,-4.709 0.178,-10.265 0.482,-15.108 l -2.672,0 -0.09,0.066 z M 87.435,19.632 c 1.383,2.047 2.262,5.228 0.404,7.91 -1.522,-1.947 -1.164,-5.452 -0.404,-7.91 m -5.818,8.073 c -1.372,-2.297 -1.055,-5.782 0,-8.146 1.233,2.29 2.133,5.925 0,8.146 m 15.317,-2.491 c 0.709,-4.769 -1.288,-9.451 -3.871,-12.498 -0.476,2.576 -0.124,9.461 0.444,13.738 1.46,-3.126 -0.041,-6.317 0.213,-9.583 0.844,1.263 1.32,2.509 1.847,3.923 0.866,2.301 0.296,5.373 -1.527,7.351 -1.127,1.192 -2.722,1.875 -4.197,1.375 -0.555,-0.182 -1.051,-0.775 -1.051,-0.775 0,0 0.387,-0.992 0.853,-2.641 0.844,-3.599 0.224,-6.725 -2.158,-10.621 -1.946,4.042 -2.329,9.439 -0.755,13.525 -1.631,1.68 -3.743,0.855 -4.167,0.183 2.112,-3.898 1.683,-9.458 -0.849,-13.555 -1.843,3.657 -2.541,8.937 -1.195,13.509 -2.076,1.91 -4.627,2.948 -7.04,4.11 3.1,-0.18 5.75,-0.414 7.945,-2.106 0.792,0.914 1.729,1.639 2.945,1.639 1.439,0 2.707,-0.947 3.457,-1.639 1.625,1.703 3.971,1.46 5.042,0.833 2.501,-1.436 3.671,-4.166 4.064,-6.768 m 64.598,28.804 c 1.144,-2.69 1.532,-4.917 1.532,-4.917 0.801,1.475 2.035,4.917 2.035,4.917 l -3.567,0 z m 8.919,4.85 C 167.986,54.96 166.274,50.662 164.6,46.492 l -3.385,0 -0.084,0.065 c 0,0.119 1.244,0.457 0.918,2.106 -0.451,2.455 -1.589,5.174 -4.598,11.266 l -0.241,0.491 c -0.017,0.03 -0.021,0.04 0.248,0.04 l 2.765,0 0.087,-0.066 c 0,-0.249 -1.185,-0.249 -0.984,-1.149 0.271,-0.995 1.135,-2.774 1.767,-4.172 l 4.56,0 c 0.874,1.646 1.637,3.401 2.66,4.935 0.095,0.138 0.217,0.334 0.304,0.413 0.104,0.057 0.448,0.04 0.639,0.04 0.44,0.017 2.697,0 2.697,0 l 0.075,-0.066 c -0.001,-0.227 -0.739,-0.27 -1.577,-1.527 m 12.719,-12.31 c 0,0.254 0.914,0.327 1.028,0.945 0.591,3.149 0.329,10.086 0.329,10.086 -3.813,-3.189 -6.939,-7.092 -10.076,-10.961 -0.18,-0.178 -0.692,-0.136 -0.983,-0.136 l -2.09,0 -0.067,0.065 c -0.021,0.267 0.526,0.235 1.117,0.945 0.309,0.408 0.522,0.893 0.565,1.318 0.096,1.47 0.014,2.515 0,4.193 -0.048,1.671 -0.275,6.822 -0.275,6.993 l 0.071,0.413 c 0.122,0.083 0.43,0.04 0.639,0.04 l 1.692,0 0.07,-0.066 c 0.008,-0.249 -0.875,-0.27 -0.992,-1.149 -0.031,-0.455 -0.079,-2.092 -0.151,-3.58 -0.019,-1.927 0.021,-3.402 0.125,-5.104 3.203,3.712 10.478,10.604 10.964,11 0.311,0.222 0.341,0.04 0.341,0.04 0.33,-4.709 0.155,-10.265 0.451,-15.108 l -2.666,0 -0.092,0.066 z m -108.768,-0.066 -2.681,0 -0.094,0.065 c 0,0.254 0.855,0.267 0.963,1.154 0.088,0.652 0.114,3.676 0.156,5.238 l 0,5.524 c 0,0 -0.031,0.998 -0.368,1.986 -0.435,1.321 -2.51,2.761 -4.057,2.761 -2.289,0 -5.167,-1.021 -3.944,-5.002 -0.378,-0.127 -0.523,0.425 -1.129,0.652 -1.573,0.549 -4.047,0.53 -5.719,0 -0.041,-1.789 -0.063,-3.363 -0.063,-5.187 l 0,-6.724 -0.067,-0.434 c -0.124,-0.058 -0.456,-0.036 -0.632,-0.036 l -2.697,0 -0.103,0.065 c 0,0.254 0.87,0.267 0.978,1.154 0.048,0.339 0.084,1.258 0.12,2.289 0.063,3.449 0.14,7.152 -0.103,10.46 l 8.266,0 c 0,0 -0.186,2.28 0.637,3.283 1.133,1.362 3.055,1.336 4.866,0.811 2.692,-0.811 6.088,-3.085 6.331,-5.888 0.031,-1.531 0.041,-3.106 0.041,-4.668 l 0.032,-7.037 -0.073,-0.434 c -0.137,-0.053 -0.468,-0.032 -0.66,-0.032 m 99.066,-13.979 0.155,0 c 2.825,0.08 5.37,0.254 7.91,-0.8 2.179,-1.217 2.95,-3.19 3.556,-5.163 1.676,-5.708 0,-11.617 -4.36,-15.5 -1.183,3.626 0.297,7.354 0.613,10.873 0.21,1.214 0.014,2.584 0.301,3.757 1.287,-3.683 0.31,-7.256 -0.348,-10.632 l -0.017,-0.246 c 2.139,2.746 3.731,5.323 3.531,8.651 -0.569,5.884 -7.043,7.365 -11.341,9.06 m -18.219,26.732 c -0.091,-0.643 -0.173,-3.675 -0.199,-5.246 l 0.026,-7.037 -0.075,-0.434 c -0.143,-0.058 -0.457,-0.036 -0.639,-0.036 l -2.706,0 -0.1,0.065 c 0,0.254 0.877,0.267 0.964,1.154 0.097,0.652 0.188,3.676 0.218,5.238 l -0.016,5.939 c -0.014,0.46 -0.014,1.009 -0.014,1.118 0,0.108 0,0.356 0.112,0.413 0.091,0.083 0.423,0.04 0.604,0.04 l 2.711,0 0.079,-0.066 c 0.002,-0.247 -0.863,-0.268 -0.965,-1.148 m -2.337,-27.724 c -1.144,0.552 -2.605,0.754 -3.859,1.124 -1.19,0.398 -1.217,1.952 -1.596,2.901 1.14,-0.492 2.476,-0.727 3.707,-1.055 1.169,-0.499 1.274,-1.978 1.748,-2.97 M 5.539,32.513 c 0.698,-0.137 1.16,-0.516 1.625,-1.458 1.335,-2.789 2.071,-6.259 4.421,-6.79 0.367,0.296 0.274,0.869 0.388,1.367 0.756,3.781 4.487,5.528 7.536,6.185 10.512,2.083 20.534,-0.905 28.573,-7.795 L 48.2,23.937 c -0.45,2.569 1.139,3.572 2.36,3.351 1.662,-0.288 2.335,-2.228 2.909,-3.457 0.353,-0.844 0.601,-1.458 0.776,-2.025 0.146,-0.465 0.274,-0.916 0.348,-1.384 l -0.383,0.232 c -1.128,0.875 -1.357,2.387 -2.375,3.368 -0.399,0.349 -1.041,0.603 -1.616,0.444 -0.782,-0.274 -0.968,-0.949 -0.999,-1.647 0.016,-0.632 0.15,-1.267 0.15,-1.655 l 0,-0.37 c -6.428,5.5 -14.043,8.645 -22.588,9.004 C 21.58,29.726 16.223,29.2 13.127,24.816 12.568,23.857 12.356,22.723 12.097,21.655 11.3,21.355 10.378,22.09 9.83,22.616 7.64,24.624 7.563,27.668 5.493,29.665 4.447,30.211 2.682,29.114 2.702,27.392 2.754,24.964 4.395,23.01 6.336,21.434 c 3.018,-2.458 5.544,-5.616 6.103,-9.174 -1.398,0.611 -3.116,0.875 -4.643,1.203 -0.87,0.394 -1,1.543 -1.274,2.821 1.253,-0.415 2.759,-0.606 4.142,-1.007 l 0.015,0.079 c -1.289,3.089 -4.549,4.236 -6.812,6.62 -2.2,2.365 -2.754,6.128 -1.46,8.767 0.772,1.52 1.755,1.938 3.132,1.77 m 24.318,-11.45 c 0.212,1.114 1.723,0.413 2.235,-0.481 0.114,0.157 0.233,0.253 0.44,0.307 0.218,0.021 0.581,-0.022 0.818,-0.626 0.165,-0.414 0.232,-0.98 -0.042,-1.501 l -0.098,0.585 c -0.046,0.244 -0.27,0.528 -0.631,0.528 -0.332,0.011 -0.259,-0.374 -0.312,-0.538 -0.398,0.127 -0.269,0.725 -0.983,1.108 -0.269,0.137 -0.719,0.284 -0.916,-0.043 -0.161,-0.354 0.128,-0.679 0.175,-0.992 -0.464,0.313 -0.748,1.035 -0.686,1.653 m 34.038,11.905 c 2.251,-0.03 5.735,-0.525 6.993,-1.055 2.309,-1.245 3.1,-3.359 3.629,-5.863 0.439,-2.113 -0.171,-3.459 1.252,-4.414 0.595,-0.359 0.347,-1.478 0.482,-2.353 -0.079,-0.116 -0.232,-0.191 -0.357,-0.191 -1.688,0.546 -1.589,2.311 -1.785,3.801 -0.855,5.104 -5.342,8.352 -9.473,9.772 l -0.741,0.303 z m -2.117,-5.077 0.062,-1.145 c 0.212,-2.299 -2.619,-3.229 -3.132,-5.258 0.088,-0.621 0.378,-1.151 0.802,-1.638 0.953,-0.885 2.101,-1.203 3.448,-0.8 1.552,0.487 2.112,2.014 2.324,3.491 -1.223,5.478 -7.289,8.117 -11.6,10.363 l 0.404,-0.031 c 2.79,-0.371 4.752,-0.78 6.956,-1.563 2.226,-0.823 3.779,-3.372 4.536,-5.501 0.884,-2.63 1.36,-6.451 -0.617,-8.735 -1.086,-1.066 -2.903,-1.527 -4.295,-0.844 -1.465,0.641 -2.588,2.184 -2.77,3.863 -0.389,3.139 1.428,5.957 3.882,7.798 M 20.974,18.222 c 6.217,-1.25 12.335,-2.767 18.324,-4.492 0.667,-0.233 2.283,-0.469 2.179,-1.47 -6.413,1.718 -13.013,3.261 -19.742,4.66 l -0.388,0.568 c -0.125,0.157 -0.621,0.697 -0.373,0.734 m 32.879,-2.946 c -0.625,-0.557 -1.532,-1.035 -2.246,-1.368 -0.409,0.642 -0.958,1.42 -1.087,2.264 0.725,0.613 1.485,0.942 2.241,1.41 0.652,-0.878 0.9,-1.755 1.092,-2.306 M 42.01,34.354 c 1.228,-0.601 2.583,-0.782 3.862,-1.132 1.019,-0.629 1.16,-1.828 1.528,-2.852 -1.171,0.601 -2.589,0.759 -3.857,1.172 -1.248,0.371 -1.171,1.893 -1.533,2.812 m 2.07,19.664 c 1.109,-2.69 1.512,-4.917 1.512,-4.917 0.798,1.475 2.045,4.917 2.045,4.917 l -3.557,0 z m 8.872,4.85 C 50.52,54.96 48.801,50.662 47.109,46.492 l -3.375,0 -0.078,0.065 c 0,0.119 1.253,0.457 0.938,2.106 -0.476,2.455 -1.594,5.174 -4.617,11.266 l -0.228,0.491 c -0.037,0.03 -0.041,0.04 0.228,0.04 l 2.753,0 0.099,-0.066 c 0,-0.249 -1.17,-0.249 -0.983,-1.149 C 42.12,58.25 43,56.471 43.625,55.073 l 4.55,0 c 0.864,1.646 1.625,3.401 2.666,4.935 0.098,0.138 0.211,0.334 0.294,0.413 0.109,0.057 0.445,0.04 0.636,0.04 0.43,0.017 2.719,0 2.719,0 l 0.077,-0.066 c 0,-0.227 -0.75,-0.27 -1.615,-1.527 m 92.952,-47.636 c -6.687,2.039 -13.85,4.251 -20.844,5.815 l -0.714,1.736 c 7.034,-1.96 14.234,-3.885 20.991,-6.465 l 0.567,-1.086 z m -11.474,8.533 c -0.207,0.235 -0.378,0.525 -0.481,0.774 -0.187,0.403 -0.156,1.141 0.227,1.395 0.405,0.232 1.238,0.064 1.632,-0.753 0.238,0.096 0.435,0.186 0.837,0.021 0.675,-0.286 0.653,-1.362 0.653,-2.045 -0.311,0.244 -0.098,0.79 -0.487,1.053 -0.377,0.213 -0.719,-0.188 -0.719,-0.485 -0.213,0.324 -0.368,0.916 -0.809,1.144 -0.237,0.126 -0.624,0.246 -0.868,0.043 -0.363,-0.353 0.128,-0.775 0.015,-1.147 M 76.938,15.122 c 1.041,-0.224 2.334,-0.624 2.91,-1.181 0.564,-0.53 1.071,-1.288 0.942,-2.115 -0.352,-0.939 -1.119,0.548 -1.833,0.179 -0.352,-0.253 0.548,-1.118 1.118,-0.944 0.17,-0.174 0.27,-0.447 0.295,-0.673 -0.125,-0.148 -0.43,-0.178 -0.591,-0.083 -0.75,0.424 -1.386,1.063 -1.319,2.094 0.145,1.159 1.236,-0.246 1.827,0.095 -0.688,1.297 -2.407,1.747 -3.349,2.628"
       id="path6"
       style="fill:#5054a4;fill-opacity:1"
       inkscape:connector-curvature="0" />
    <path
       d="m 267.048,37.649 c 0,0 1.428,1.504 1.946,3.584 0,0 -3.096,-0.245 -4.334,0.714 0,0 0.095,0.869 1.533,2.409 0,0 0.264,0.452 -0.368,0.857 -0.591,0.378 -3.593,0.574 -3.702,-2.584 0,0 -1.928,2.35 -4.569,1.998 0,0 -2.085,-0.254 -2.22,-2.216 0,0 2.003,0.396 3.596,-0.352 0,0 -0.057,-1.294 -1.884,-2.572 0,0 1.426,-1.851 4.671,-2.726 0,0 -0.633,-2.809 0.289,-5.65 0.953,-2.852 1.418,-3.529 1.661,-4.151 0.265,-0.592 0.558,-2.08 0.078,-3.666 0,0 7.537,-0.154 7.566,7.913 0.001,10e-4 0.074,4.491 -4.263,6.442 m -8.484,13.852 -4.421,-2.022 4.348,-1.423 4.167,1.904 -4.094,1.541 z m -7.428,-7.313 c -2.535,-0.148 -3.453,-2.672 -3.453,-2.672 -1.271,1.667 -3.886,1.405 -3.886,1.405 -2.105,-0.478 -2.254,-2.306 -2.254,-2.306 2.319,-0.465 2.915,-1.31 2.915,-1.31 -0.532,-1.478 -3.037,-2.297 -3.037,-2.297 1.506,-2.386 4.746,-3.595 4.746,-3.595 -1.262,-1.315 -1.627,-2.62 -1.952,-4.769 -0.33,-2.21 0.243,-5.615 0.243,-5.615 0.657,-3.048 1.806,-4.526 2.796,-5.815 1.072,-1.27 2.133,-1.118 2.133,-1.118 1.407,0.157 2.682,0.911 2.682,0.911 1.687,0.986 2.883,2.433 3.437,3.192 0.501,0.763 2.132,4.425 0.104,9.021 -2.044,4.533 -4.136,5.402 -4.136,5.402 3.147,3.026 3.132,4.391 3.132,4.391 -2.599,0 -3.293,1.443 -3.293,1.443 0.638,1.268 2.501,1.742 2.501,1.742 -0.537,2.088 -2.678,1.99 -2.678,1.99 m -1.679,6.704 c -0.883,0 -1.603,-0.694 -1.603,-1.584 0,-0.912 0.72,-1.604 1.603,-1.604 0.856,0 1.565,0.692 1.565,1.604 0,0.889 -0.709,1.584 -1.565,1.584 m -8.915,0 -4.225,-1.697 4.225,-1.713 4.311,1.713 -4.311,1.697 z m -7.14,-9.376 c 0,0 -0.942,2.523 -3.451,2.672 0,0 -2.148,0.099 -2.671,-1.988 0,0 1.821,-0.475 2.483,-1.742 0,0 -0.694,-1.443 -3.308,-1.443 0,0 -0.024,-1.364 3.162,-4.391 0,0 -2.138,-0.869 -4.162,-5.402 -2.021,-4.597 -0.407,-8.258 0.126,-9.021 0.532,-0.759 1.723,-2.206 3.422,-3.192 0,0 1.262,-0.754 2.706,-0.911 0,0 1.031,-0.152 2.075,1.118 1.005,1.289 2.215,2.767 2.828,5.815 0,0 0.583,3.404 0.247,5.615 -0.313,2.149 -0.673,3.454 -1.946,4.769 0,0 3.205,1.209 4.735,3.595 0,0 -2.53,0.819 -3.036,2.297 0,0 0.601,0.845 2.903,1.31 0,0 -0.094,1.828 -2.271,2.306 0.001,-0.002 -2.58,0.26 -3.842,-1.407 m -1.765,9.376 c -0.854,0 -1.619,-0.694 -1.619,-1.584 0,-0.849 0.766,-1.552 1.619,-1.552 0.875,0 1.538,0.703 1.538,1.552 0,0.889 -0.663,1.584 -1.538,1.584 m -9.134,0.609 -4.142,-1.531 4.207,-1.914 4.334,1.458 -4.399,1.987 z m -7.306,-6.179 c -0.569,-0.404 -0.365,-0.861 -0.365,-0.861 1.436,-1.519 1.562,-2.39 1.562,-2.39 -1.252,-0.952 -4.316,-0.704 -4.316,-0.704 0.506,-2.126 1.924,-3.578 1.924,-3.578 -4.355,-2.038 -4.237,-6.495 -4.237,-6.495 0,-8.031 7.553,-7.904 7.553,-7.904 -0.478,1.574 -0.173,3.064 0.061,3.702 0.244,0.592 0.745,1.244 1.684,4.116 0.909,2.843 0.279,5.621 0.279,5.621 3.229,0.893 4.643,2.746 4.643,2.746 -1.838,1.275 -1.838,2.585 -1.838,2.585 1.553,0.761 3.588,0.348 3.588,0.348 -0.15,1.976 -2.252,2.202 -2.252,2.202 -2.604,0.344 -4.571,-1.967 -4.571,-1.967 -0.091,3.141 -3.083,2.967 -3.715,2.579 m 63.01,-14.346 c 1.616,-0.54 1.423,-2.331 1.423,-2.331 -0.346,-2.095 -2.54,-1.797 -2.54,-1.797 1.388,-1.627 0.288,-2.896 0.288,-2.896 -1.074,-1.341 -2.769,-0.476 -2.769,-0.476 0.771,-1.719 -0.248,-2.586 -0.248,-2.586 -1.355,-1.192 -2.77,0.041 -2.77,0.041 -0.041,-1.679 -1.254,-2.063 -1.254,-2.063 -1.428,-0.618 -2.477,0.668 -2.477,0.668 -1.048,-2.883 -3.106,-1.403 -3.598,-1.204 -0.487,0.287 -0.535,0 -0.535,0 -0.092,-3.485 -3.059,-2.175 -3.059,-2.175 0.808,-1.741 -0.6,-2.722 -0.6,-2.722 -1.523,-0.942 -2.79,0.378 -2.79,0.378 -0.157,-2.301 -1.857,-1.618 -2.397,-1.415 -0.518,0.116 -1.636,0.158 -1.636,0.158 -3.516,-0.435 -4.817,-0.233 -4.817,-0.233 -4.281,-0.087 -7.888,7.013 -7.888,7.013 l 0,0.062 -0.064,-0.062 c 0,0 -3.658,-7.1 -7.925,-7.013 0,0 -1.308,-0.202 -4.813,0.233 0,0 -1.092,-0.042 -1.635,-0.158 -0.54,-0.203 -2.248,-0.886 -2.366,1.415 0,0 -1.283,-1.32 -2.811,-0.378 0,0 -1.402,0.981 -0.596,2.722 0,0 -2.981,-1.31 -3.074,2.175 0,0 -0.017,0.287 -0.543,0 -0.474,-0.2 -2.527,-1.679 -3.571,1.204 0,0 -1.067,-1.286 -2.48,-0.668 0,0 -1.231,0.384 -1.274,2.063 0,0 -1.423,-1.233 -2.789,-0.041 0,0 -1.022,0.867 -0.271,2.586 0,0 -1.654,-0.865 -2.689,0.476 0,0 -1.118,1.269 0.288,2.896 0,0 -2.255,-0.298 -2.566,1.797 0,0 -0.171,1.791 1.403,2.331 0,0 -1.849,0.865 -1.517,2.353 0,0 0.113,1.482 2.033,1.765 0,0 -1.608,1.066 -0.941,2.556 0,0 0.637,1.739 2.692,1.233 0,0 -0.773,1.802 0.423,2.604 0,0 1.122,0.957 2.511,0.017 0,0 0.73,-0.27 1.034,0.253 0,0 0.523,0.838 -0.573,2.075 0,0 5.974,-0.506 7.584,9.131 l 48.888,0 c 1.618,-9.637 7.676,-9.131 7.676,-9.131 -1.123,-1.237 -0.579,-2.075 -0.579,-2.075 0.274,-0.522 1.01,-0.253 1.01,-0.253 1.393,0.94 2.546,-0.017 2.546,-0.017 1.153,-0.802 0.399,-2.604 0.399,-2.604 2.075,0.506 2.737,-1.233 2.737,-1.233 0.596,-1.489 -0.984,-2.556 -0.984,-2.556 1.926,-0.283 2.004,-1.765 2.004,-1.765 0.342,-1.488 -1.5,-2.353 -1.5,-2.353 m -61.626,27.282 c 0.096,1.137 0.135,2.186 0.135,2.186 l 47.509,0 c 0,0 0.039,-0.992 0.136,-2.046 0.108,-1.149 0.239,-2.051 0.239,-2.051 l -48.267,0 c 0,0 0.153,0.954 0.248,1.911 m 21.233,-47.402 c 0,0 -1.528,-0.033 -2.533,0.466 0,0 3.547,0.95 5.261,5.058 1.727,-4.107 5.252,-5.058 5.252,-5.058 -0.941,-0.499 -2.536,-0.466 -2.536,-0.466 -0.154,-0.536 -0.749,-0.959 -0.749,-0.959 0.465,-0.562 1.392,-1.179 1.392,-1.179 l -3.358,-7.971 -3.346,7.971 c 0,0 0.917,0.618 1.377,1.179 -0.001,-10e-4 -0.607,0.423 -0.76,0.959"
       id="path8"
       style="fill:#5054a4;fill-opacity:1"
       inkscape:connector-curvature="0" />
    <path
       d="m 160.526,12.805 c 0.648,-3 0.554,-6.333 0.928,-9.318 l -0.335,0.085 -0.213,1.31 c -0.683,5.432 -6.025,7.077 -9.97,9.87 1.677,-0.415 3.36,-0.912 4.875,-1.479 1.988,-0.742 3.52,-2.508 4.534,-4.051 0.156,0.988 -0.448,2.297 0.181,3.583 m -1.06,12.207 c 0.535,1.098 1.092,2.106 2.351,2.504 1.052,0.339 2.906,-0.474 4.003,-4.56 0.517,0.854 0.781,1.552 1.552,2.27 3.421,3.333 6.041,-1.892 9.115,-2.448 0.37,-0.722 0.57,-1.734 0.623,-2.544 -1.079,0.037 -2.072,0.885 -3.337,0.513 -0.36,-0.117 -0.783,-0.295 -0.81,-0.842 0.51,-5.101 -0.405,-10.373 -3.955,-13.892 -1.601,4.377 0.645,8.906 0.843,13.318 0.983,-3.096 0.232,-6.303 -0.342,-9.292 2.388,3.256 2.997,7.236 2.598,11.504 -0.362,2.319 -2.446,2.193 -3.39,1.53 -3.67,-2.872 -3.173,-8.66 -4.9,-12.073 -0.861,1.68 -0.183,3.525 0.184,5.148 0.487,2.044 2.04,6.035 -0.161,8.013 -1.401,1.255 -2.933,0.243 -3.467,-0.997 -1.346,-3.259 -1.65,-6.715 -2.351,-10.246 l -0.33,-0.279 c -0.206,0.764 -0.44,1.67 -0.349,2.544 0.235,1.627 0.948,5.817 1.735,8.554 -1.019,2.465 -2.52,2.82 -3.285,2.673 -1.684,-0.749 -1.191,-2.736 -1.218,-4.152 -3.838,2.136 -7.774,4.427 -10.979,5.387 -7.546,2.266 -16.916,4.016 -24.463,0.445 -2.722,-1.331 -4.995,-3.959 -4.938,-7.131 -0.057,-0.328 -0.414,-0.506 -0.751,-0.465 -3.078,1.123 -3.731,4.506 -4.72,7.107 -1.092,2.822 -3.721,0.906 -3.929,-0.184 -0.352,-4.156 3.676,-6.731 6.01,-9.414 1.703,-1.94 2.541,-4.235 2.774,-6.906 -1.31,0.811 -3.164,1.139 -4.597,1.618 -0.869,0.446 -0.776,2.008 -1.041,2.904 l 4.09,-1.269 0.124,-0.041 c -1.456,3.894 -6.611,5.195 -7.806,9.524 -0.58,2.173 -0.622,5.617 1.051,7.247 0.703,0.581 2.012,1.144 3.018,0.54 2.018,-1.977 1.615,-4.808 3.261,-6.907 0.522,-0.647 1.242,-1.517 1.899,-1.266 l 0.367,1.97 c 0.989,3.888 5.187,6.066 8.774,6.855 9.188,1.499 18.427,-0.637 26.186,-4.427 1.635,-0.772 3.013,-1.838 4.618,-2.576 0.123,2.135 0.884,3.673 2.189,3.929 0.965,0.176 2.462,-0.761 3.754,-4.186 M 25.208,56.72 c -0.15,0.203 -0.326,0.351 -0.533,0.46 -2.036,1.37 -6.564,0.587 -7.951,-1.235 -0.698,-1.019 -0.916,-2.542 -0.906,-3.946 0,-1.075 0.129,-2.42 0.735,-3.421 1.382,-2.168 6.962,-1.218 8.504,0.771 1.424,2.087 0.866,6.417 0.151,7.371 M 3.831,52.253 C 3.587,52.242 3.469,52.062 3.469,51.851 l 0,-4.369 c 1.6,-0.527 4.037,-0.574 4.767,0.63 0.617,0.979 0.575,2.955 -0.134,3.64 -0.938,0.815 -3.961,0.554 -4.271,0.501 m 20.223,-6.165 c -3.229,-0.596 -6.967,-0.144 -9.1,1.997 -1.687,1.676 -2.428,6.85 -0.082,9.661 l -0.016,0 0.037,0.021 0.192,0.222 c 0.088,0.113 0.154,0.254 0.134,0.366 -0.456,1.27 -2.127,1.258 -2.671,0.913 -2.21,-1.762 -2.841,-4.769 -4.716,-5.986 0.963,-0.583 2.024,-1.283 2.635,-2.319 0.528,-1.158 0.549,-2.937 -0.45,-3.881 C 9.22,46.177 7.6,45.855 5.736,45.855 l -5.11,0 c -1.04,0 0.404,0.233 0.404,1.182 0.187,4.361 0.036,12.789 0.036,12.789 l 3.437,0 c 0.016,-0.34 -0.849,-0.361 -0.999,-0.9 0,0 -0.057,-4.66 -0.057,-4.948 -0.041,-0.322 0.228,-0.322 0.228,-0.322 0.947,-0.052 1.703,-0.165 2.236,0.519 0.518,0.692 2.656,5.439 5.518,6.265 1.713,0.423 3.546,-0.353 4.798,-1.331 l 0.17,-0.152 c 2.402,1.244 5.942,1.109 8.235,-0.23 3.51,-2.023 3.841,-6.343 2.79,-9.769 -0.516,-1.7 -1.945,-2.539 -3.368,-2.87 m 11.698,12.81 -0.057,-4.104 c 2.216,-2.754 4.379,-5.665 5.312,-8.94 l -2.413,0 c -1.056,0 0.393,0.233 0.393,1.182 -0.186,2.003 -2.132,4.43 -3.846,6.463 l -4.523,-7.645 -3.407,0 -0.077,0.068 c -0.016,0.27 0.657,0.165 1.278,1.031 1.724,2.55 3.396,5.23 4.876,7.959 0,1.423 0.041,4.912 0.041,4.912 l 3.406,0 c 10e-4,-0.474 -0.921,-0.39 -0.983,-0.926 m 88.973,-5.517 c 1.142,-2.697 1.531,-4.922 1.531,-4.922 0.782,1.48 2.05,4.922 2.05,4.922 l -3.581,0 z m 8.902,4.851 c -2.443,-3.907 -4.172,-8.21 -5.849,-12.378 l -3.379,0 -0.073,0.068 c 0,0.113 1.259,0.454 0.944,2.103 -0.494,2.462 -1.59,5.173 -4.645,11.272 l -0.217,0.487 c -0.035,0.031 -0.035,0.04 0.228,0.04 l 2.78,0 0.056,-0.066 c 0,-0.256 -1.154,-0.256 -0.963,-1.144 0.274,-1 1.17,-2.785 1.771,-4.172 l 4.555,0 c 0.875,1.64 1.636,3.395 2.65,4.925 0.12,0.135 0.239,0.334 0.331,0.417 0.094,0.058 0.43,0.04 0.622,0.04 0.45,0.018 2.696,0 2.696,0 l 0.1,-0.066 c 0.008,-0.229 -0.763,-0.273 -1.607,-1.526 m -16.284,-0.931 c -1.703,1.463 -5.59,0.792 -7.935,0.558 l 0,-10.244 c 0.958,-0.326 1.532,-0.348 3.21,-0.273 1.806,0.07 4.228,0.61 5.169,2.206 1.073,1.788 1.414,6.135 -0.444,7.753 M 96.602,52.253 c -0.248,-0.011 -0.346,-0.191 -0.346,-0.402 l 0,-4.369 c 1.584,-0.527 4.006,-0.574 4.737,0.63 0.626,0.979 0.585,2.955 -0.125,3.64 -0.932,0.815 -3.966,0.554 -4.266,0.501 m 23.822,-2.449 c -1.326,-4.585 -7.29,-3.949 -12.144,-3.949 l -1.714,0 c -0.952,0 0.191,0.182 0.404,0.948 0.14,5.522 0.01,10.031 0.01,10.031 -0.01,0.485 -0.01,0.963 -0.01,1.45 -0.052,1.036 -0.979,1.418 -1.662,0.983 -2.215,-1.762 -2.821,-4.769 -4.695,-5.986 0.953,-0.583 2.015,-1.283 2.63,-2.319 0.518,-1.158 0.538,-2.937 -0.446,-3.881 -0.807,-0.905 -2.421,-1.227 -4.286,-1.227 l -5.098,0 c -1.051,0 0.403,0.233 0.403,1.182 0.192,4.361 0.016,12.789 0.016,12.789 l 3.448,0 c 0.02,-0.34 -0.87,-0.361 -1.01,-0.9 0,0 -0.048,-4.66 -0.067,-4.948 0,-0.322 0.248,-0.322 0.248,-0.322 0.963,-0.052 1.697,-0.165 2.232,0.519 0.522,0.692 2.661,5.439 5.521,6.265 0.353,0.093 0.731,0.132 1.103,0.113 1.035,0.03 2.019,-0.348 2.879,-0.87 3.441,0.162 7.241,0.714 10.062,-1.448 2.973,-2.012 2.889,-5.406 2.176,-8.43 M 88.776,56.72 c -0.171,0.203 -0.316,0.351 -0.518,0.46 -2.06,1.37 -6.594,0.587 -7.977,-1.235 -0.688,-1.019 -0.916,-2.542 -0.895,-3.946 -0.01,-1.075 0.125,-2.42 0.75,-3.421 1.351,-2.168 6.947,-1.218 8.468,0.771 1.43,2.087 0.887,6.417 0.172,7.371 M 87.705,46.088 c -3.225,-0.596 -6.967,-0.144 -9.089,1.997 -1.978,1.946 -2.65,8.635 1.278,10.778 2.381,1.335 6.072,1.23 8.407,-0.14 3.483,-2.023 3.809,-6.343 2.779,-9.769 -0.534,-1.696 -1.935,-2.535 -3.375,-2.866 m 58.711,-0.165 c -0.021,0.253 0.898,0.332 1.011,0.94 0.604,3.149 0.353,10.089 0.353,10.089 -3.838,-3.193 -6.958,-7.087 -10.099,-10.969 -0.192,-0.174 -0.694,-0.129 -0.995,-0.129 l -2.064,0 -0.094,0.068 c -0.015,0.27 0.538,0.232 1.133,0.94 0.322,0.414 0.54,0.9 0.559,1.326 0.094,1.46 0.038,2.512 -0.015,4.191 -0.026,1.669 -0.248,6.817 -0.248,6.987 l 0.072,0.417 c 0.093,0.083 0.439,0.04 0.622,0.04 l 1.697,0 0.072,-0.066 c 0,-0.256 -0.864,-0.273 -0.968,-1.144 -0.057,-0.457 -0.113,-2.097 -0.159,-3.582 -0.052,-1.927 0.009,-3.405 0.108,-5.11 3.209,3.711 10.47,10.607 10.962,10.999 0.325,0.221 0.333,0.043 0.333,0.043 0.34,-4.713 0.17,-10.264 0.475,-15.11 l -2.671,0 -0.084,0.07 z M 87.01,18.996 c 1.384,2.047 2.263,5.229 0.405,7.909 -1.522,-1.947 -1.165,-5.448 -0.405,-7.909 m -5.817,8.074 c -1.376,-2.296 -1.056,-5.785 0,-8.147 1.232,2.288 2.133,5.924 0,8.147 m 15.316,-2.491 c 0.705,-4.771 -1.288,-9.452 -3.87,-12.498 -0.477,2.576 -0.125,9.461 0.444,13.736 1.46,-3.126 -0.042,-6.315 0.213,-9.583 0.844,1.258 1.314,2.508 1.847,3.924 0.855,2.3 0.296,5.376 -1.532,7.352 -1.123,1.192 -2.717,1.875 -4.192,1.373 -0.565,-0.181 -1.051,-0.774 -1.051,-0.774 0,0 0.388,-0.99 0.849,-2.639 0.849,-3.605 0.222,-6.727 -2.154,-10.621 -1.946,4.044 -2.334,9.438 -0.754,13.525 -1.632,1.68 -3.744,0.854 -4.168,0.181 2.112,-3.9 1.677,-9.452 -0.849,-13.553 -1.842,3.657 -2.535,8.937 -1.195,13.504 -2.076,1.916 -4.627,2.954 -7.045,4.116 3.106,-0.181 5.756,-0.416 7.951,-2.1 0.792,0.906 1.734,1.633 2.945,1.633 1.443,0 2.707,-0.95 3.458,-1.633 1.62,1.701 3.97,1.452 5.047,0.825 2.494,-1.438 3.663,-4.168 4.056,-6.768 m 64.593,28.802 c 1.148,-2.697 1.532,-4.922 1.532,-4.922 0.809,1.48 2.045,4.922 2.045,4.922 l -3.577,0 z m 8.923,4.851 c -2.463,-3.907 -4.177,-8.21 -5.848,-12.378 l -3.385,0 -0.088,0.068 c 0,0.113 1.245,0.454 0.918,2.103 -0.448,2.462 -1.583,5.173 -4.604,11.272 l -0.243,0.487 c -0.008,0.031 -0.021,0.04 0.257,0.04 l 2.76,0 0.095,-0.066 c 0,-0.256 -1.187,-0.256 -0.983,-1.144 0.267,-1 1.136,-2.785 1.753,-4.172 l 4.569,0 c 0.875,1.64 1.642,3.395 2.663,4.925 0.097,0.135 0.222,0.334 0.304,0.417 0.104,0.058 0.444,0.04 0.636,0.04 0.439,0.018 2.697,0 2.697,0 l 0.079,-0.066 c 0,-0.229 -0.745,-0.273 -1.58,-1.526 m 12.719,-12.309 c 0,0.253 0.905,0.332 1.026,0.94 0.593,3.149 0.339,10.089 0.339,10.089 -3.824,-3.193 -6.944,-7.087 -10.081,-10.969 -0.183,-0.174 -0.705,-0.129 -0.984,-0.129 l -2.092,0 -0.078,0.068 c -0.014,0.27 0.54,0.232 1.118,0.94 0.321,0.414 0.534,0.9 0.57,1.326 0.104,1.46 0.021,2.512 0,4.191 -0.052,1.669 -0.27,6.817 -0.27,6.987 l 0.069,0.417 c 0.117,0.083 0.435,0.04 0.641,0.04 l 1.687,0 0.073,-0.066 c 0.01,-0.256 -0.869,-0.273 -0.99,-1.144 -0.031,-0.457 -0.075,-2.097 -0.149,-3.582 -0.021,-1.927 0.021,-3.405 0.123,-5.11 3.206,3.711 10.478,10.607 10.964,10.999 0.305,0.221 0.343,0.043 0.343,0.043 0.332,-4.713 0.148,-10.264 0.449,-15.11 l -2.667,0 -0.091,0.07 z m -108.767,-0.069 -2.68,0 -0.099,0.068 c 0,0.253 0.859,0.27 0.968,1.158 0.088,0.652 0.114,3.673 0.156,5.234 l 0,5.522 c 0,0 -0.037,1.005 -0.373,1.987 -0.43,1.317 -2.505,2.754 -4.053,2.754 -2.288,0 -5.166,-1.014 -3.938,-4.995 -0.383,-0.131 -0.533,0.426 -1.134,0.658 -1.574,0.548 -4.047,0.521 -5.719,0 -0.047,-1.797 -0.063,-3.377 -0.063,-5.188 l 0,-6.726 -0.066,-0.432 C 56.847,45.827 56.52,45.852 56.34,45.852 l -2.693,0 -0.103,0.068 c 0,0.253 0.863,0.27 0.972,1.158 0.052,0.331 0.083,1.253 0.125,2.288 0.052,3.447 0.139,7.149 -0.104,10.456 l 8.266,0 c 0,0 -0.191,2.279 0.637,3.281 1.134,1.36 3.048,1.334 4.865,0.817 2.692,-0.817 6.088,-3.084 6.331,-5.896 0.032,-1.532 0.041,-3.103 0.041,-4.669 l 0.032,-7.031 -0.073,-0.432 C 74.5,45.829 74.169,45.854 73.977,45.854 m 99.067,-13.972 0.154,0 c 2.814,0.07 5.368,0.248 7.909,-0.805 2.181,-1.214 2.945,-3.191 3.556,-5.169 1.679,-5.705 0,-11.612 -4.357,-15.487 -1.187,3.622 0.29,7.345 0.61,10.865 0.214,1.214 0.017,2.589 0.3,3.759 1.288,-3.683 0.313,-7.255 -0.347,-10.632 l -0.026,-0.243 c 2.145,2.746 3.744,5.322 3.542,8.65 -0.575,5.881 -7.045,7.361 -11.341,9.062 m -18.221,26.733 c -0.083,-0.653 -0.17,-3.681 -0.2,-5.256 l 0.03,-7.031 -0.078,-0.432 c -0.14,-0.067 -0.456,-0.042 -0.637,-0.042 l -2.706,0 -0.099,0.068 c 0,0.253 0.87,0.27 0.967,1.158 0.095,0.652 0.178,3.673 0.211,5.234 l -0.021,5.935 c -0.013,0.462 -0.013,1.018 -0.013,1.118 0,0.104 0,0.365 0.117,0.417 0.095,0.083 0.426,0.04 0.605,0.04 l 2.714,0 0.078,-0.066 c 0.002,-0.255 -0.862,-0.273 -0.968,-1.143 M 152.49,30.886 c -1.145,0.551 -2.604,0.747 -3.862,1.118 -1.186,0.403 -1.223,1.958 -1.593,2.904 1.136,-0.492 2.468,-0.724 3.702,-1.053 1.172,-0.501 1.276,-1.973 1.753,-2.969 M 5.115,31.882 c 0.698,-0.143 1.154,-0.52 1.625,-1.462 1.331,-2.788 2.071,-6.261 4.42,-6.792 0.368,0.297 0.274,0.87 0.389,1.369 0.755,3.778 4.492,5.527 7.536,6.186 10.513,2.078 20.534,-0.909 28.563,-7.799 L 47.776,23.3 c -0.455,2.571 1.139,3.574 2.355,3.35 1.666,-0.287 2.345,-2.225 2.914,-3.457 0.352,-0.842 0.601,-1.458 0.777,-2.024 0.145,-0.466 0.274,-0.915 0.342,-1.381 l -0.383,0.233 c -1.124,0.875 -1.351,2.382 -2.371,3.364 -0.404,0.35 -1.051,0.605 -1.614,0.446 -0.782,-0.274 -0.974,-0.948 -1,-1.649 0.015,-0.629 0.155,-1.267 0.155,-1.653 l 0,-0.371 C 42.512,25.66 34.903,28.802 26.358,29.161 21.15,29.09 15.797,28.558 12.703,24.18 12.144,23.222 11.932,22.087 11.667,21.028 10.875,20.715 9.954,21.458 9.411,21.981 7.216,23.992 7.138,27.033 5.068,29.025 4.022,29.577 2.257,28.479 2.277,26.758 2.329,24.33 3.97,22.374 5.911,20.801 8.93,18.339 11.454,15.182 12.014,11.624 10.612,12.233 8.898,12.5 7.371,12.825 6.501,13.219 6.372,14.367 6.103,15.647 7.351,15.233 8.856,15.044 10.24,14.646 l 0.015,0.074 c -1.3,3.091 -4.555,4.236 -6.807,6.62 -2.2,2.362 -2.764,6.126 -1.464,8.761 0.77,1.522 1.753,1.946 3.131,1.781 M 29.432,20.426 c 0.207,1.116 1.724,0.415 2.235,-0.481 0.109,0.159 0.233,0.254 0.441,0.309 0.217,0.015 0.58,-0.022 0.818,-0.627 0.16,-0.415 0.233,-0.981 -0.042,-1.494 l -0.098,0.578 c -0.052,0.244 -0.269,0.525 -0.626,0.525 -0.336,0.011 -0.264,-0.373 -0.315,-0.535 -0.399,0.126 -0.27,0.724 -0.983,1.107 -0.27,0.137 -0.725,0.285 -0.912,-0.043 -0.171,-0.355 0.124,-0.679 0.167,-0.992 -0.462,0.313 -0.752,1.035 -0.685,1.653 m 34.039,11.907 c 2.24,-0.032 5.734,-0.526 6.993,-1.053 2.308,-1.249 3.1,-3.363 3.628,-5.865 0.44,-2.114 -0.171,-3.465 1.252,-4.416 0.584,-0.359 0.347,-1.478 0.481,-2.352 -0.078,-0.117 -0.233,-0.19 -0.357,-0.19 -1.693,0.544 -1.59,2.309 -1.781,3.799 -0.859,5.104 -5.347,8.355 -9.478,9.768 l -0.738,0.309 z m -2.123,-5.079 0.067,-1.145 c 0.207,-2.301 -2.629,-3.228 -3.131,-5.258 0.082,-0.619 0.382,-1.149 0.802,-1.639 0.952,-0.884 2.101,-1.201 3.448,-0.799 1.547,0.483 2.111,2.013 2.318,3.494 -1.217,5.474 -7.283,8.113 -11.595,10.362 l 0.398,-0.033 c 2.8,-0.37 4.757,-0.779 6.962,-1.564 2.231,-0.825 3.784,-3.37 4.534,-5.502 0.885,-2.63 1.361,-6.451 -0.616,-8.735 -1.086,-1.064 -2.903,-1.527 -4.296,-0.841 -1.464,0.639 -2.593,2.182 -2.768,3.863 -0.388,3.138 1.428,5.957 3.877,7.797 M 20.55,17.587 c 6.217,-1.258 12.334,-2.766 18.323,-4.495 0.668,-0.232 2.283,-0.466 2.174,-1.469 -6.408,1.717 -13.008,3.26 -19.737,4.66 l -0.388,0.566 c -0.134,0.159 -0.631,0.694 -0.372,0.738 m 32.878,-2.941 c -0.626,-0.561 -1.531,-1.038 -2.246,-1.373 -0.42,0.639 -0.958,1.427 -1.092,2.267 0.724,0.611 1.48,0.945 2.246,1.405 0.653,-0.879 0.901,-1.754 1.092,-2.299 M 41.586,33.718 c 1.226,-0.602 2.577,-0.78 3.862,-1.129 1.019,-0.637 1.158,-1.831 1.526,-2.852 -1.175,0.597 -2.587,0.755 -3.856,1.168 -1.243,0.374 -1.17,1.893 -1.532,2.813 m 2.06,19.663 c 1.117,-2.697 1.517,-4.922 1.517,-4.922 0.802,1.48 2.049,4.922 2.049,4.922 l -3.566,0 z m 8.882,4.851 C 50.09,54.325 48.377,50.022 46.684,45.854 l -3.375,0 -0.082,0.068 c 0,0.113 1.253,0.454 0.936,2.103 -0.47,2.462 -1.593,5.173 -4.611,11.272 l -0.239,0.487 c -0.025,0.031 -0.036,0.04 0.239,0.04 l 2.748,0 0.104,-0.066 c 0,-0.256 -1.171,-0.256 -0.985,-1.144 0.275,-1 1.15,-2.785 1.787,-4.172 l 4.534,0 c 0.869,1.64 1.641,3.395 2.676,4.925 0.098,0.135 0.212,0.334 0.294,0.417 0.104,0.058 0.446,0.04 0.637,0.04 0.43,0.018 2.713,0 2.713,0 l 0.083,-0.066 c 10e-4,-0.229 -0.761,-0.273 -1.615,-1.526 M 145.481,10.6 c -6.688,2.037 -13.852,4.248 -20.846,5.81 l -0.714,1.74 c 7.034,-1.961 14.239,-3.885 20.985,-6.467 l 0.575,-1.083 z m -11.475,8.529 c -0.207,0.233 -0.379,0.528 -0.483,0.774 -0.186,0.401 -0.16,1.139 0.235,1.393 0.398,0.232 1.231,0.065 1.619,-0.753 0.244,0.096 0.441,0.181 0.844,0.023 0.673,-0.288 0.652,-1.363 0.652,-2.053 -0.311,0.248 -0.098,0.794 -0.48,1.062 -0.383,0.213 -0.731,-0.191 -0.731,-0.489 -0.206,0.324 -0.356,0.918 -0.796,1.146 -0.243,0.126 -0.637,0.244 -0.875,0.037 -0.364,-0.344 0.124,-0.768 0.015,-1.14 M 76.514,14.487 c 1.03,-0.222 2.334,-0.627 2.915,-1.182 0.559,-0.531 1.066,-1.29 0.926,-2.116 -0.347,-0.938 -1.118,0.552 -1.822,0.179 -0.352,-0.254 0.548,-1.117 1.123,-0.942 0.162,-0.175 0.259,-0.445 0.29,-0.674 -0.128,-0.15 -0.434,-0.181 -0.595,-0.085 -0.745,0.424 -1.381,1.066 -1.315,2.095 0.145,1.153 1.237,-0.244 1.832,0.096 -0.694,1.3 -2.417,1.75 -3.354,2.629"
       id="path10"
       style="fill:#5054a4;fill-opacity:1"
       inkscape:connector-curvature="0" />
    <path
       d="m 266.622,37.014 c 0,0 1.43,1.496 1.947,3.583 0,0 -3.096,-0.242 -4.332,0.719 0,0 0.092,0.857 1.527,2.401 0,0 0.269,0.457 -0.363,0.858 -0.595,0.382 -3.591,0.583 -3.7,-2.576 0,0 -1.937,2.345 -4.578,1.997 0,0 -2.084,-0.258 -2.214,-2.215 0,0 2.004,0.387 3.599,-0.352 0,0 -0.069,-1.298 -1.884,-2.577 0,0 1.423,-1.849 4.669,-2.724 0,0 -0.645,-2.811 0.289,-5.652 0.95,-2.85 1.417,-3.53 1.659,-4.148 0.267,-0.596 0.562,-2.084 0.078,-3.668 0,0 7.537,-0.155 7.563,7.912 10e-4,0 0.078,4.491 -4.26,6.442 m -8.494,13.856 -4.408,-2.027 4.349,-1.423 4.154,1.897 -4.095,1.553 z m -7.426,-7.317 c -2.527,-0.157 -3.455,-2.672 -3.455,-2.672 -1.262,1.667 -3.877,1.396 -3.877,1.396 -2.105,-0.466 -2.249,-2.298 -2.249,-2.298 2.317,-0.466 2.914,-1.305 2.914,-1.305 -0.529,-1.482 -3.049,-2.303 -3.049,-2.303 1.517,-2.393 4.755,-3.595 4.755,-3.595 -1.262,-1.314 -1.624,-2.616 -1.95,-4.77 -0.331,-2.209 0.244,-5.612 0.244,-5.612 0.646,-3.047 1.806,-4.527 2.798,-5.817 1.067,-1.27 2.128,-1.119 2.128,-1.119 1.41,0.157 2.681,0.914 2.681,0.914 1.68,0.987 2.884,2.434 3.434,3.191 0.507,0.762 2.144,4.426 0.104,9.02 -2.04,4.532 -4.131,5.396 -4.131,5.396 3.148,3.034 3.131,4.395 3.131,4.395 -2.599,0 -3.291,1.45 -3.291,1.45 0.638,1.265 2.499,1.738 2.499,1.738 -0.534,2.09 -2.686,1.991 -2.686,1.991 m -1.663,6.707 c -0.884,0 -1.608,-0.704 -1.608,-1.583 0,-0.913 0.725,-1.605 1.608,-1.605 0.85,0 1.549,0.692 1.549,1.605 0,0.879 -0.699,1.583 -1.549,1.583 m -8.923,0 -4.229,-1.704 4.229,-1.711 4.313,1.711 -4.313,1.704 z m -7.138,-9.379 c 0,0 -0.941,2.515 -3.461,2.672 0,0 -2.14,0.1 -2.661,-1.99 0,0 1.816,-0.474 2.483,-1.738 0,0 -0.691,-1.45 -3.307,-1.45 0,0 -0.031,-1.36 3.162,-4.395 0,0 -2.139,-0.864 -4.162,-5.396 -2.023,-4.594 -0.414,-8.258 0.126,-9.02 0.531,-0.758 1.723,-2.205 3.42,-3.191 0,0 1.264,-0.757 2.707,-0.914 0,0 1.025,-0.151 2.082,1.119 0.997,1.29 2.21,2.77 2.82,5.817 0,0 0.585,3.403 0.248,5.612 -0.31,2.154 -0.673,3.456 -1.945,4.77 0,0 3.203,1.203 4.735,3.595 0,0 -2.529,0.82 -3.038,2.303 0,0 0.601,0.839 2.908,1.305 0,0 -0.099,1.832 -2.282,2.298 0,-10e-4 -2.566,0.27 -3.835,-1.397 m -1.769,9.379 c -0.86,0 -1.616,-0.704 -1.616,-1.583 0,-0.855 0.756,-1.553 1.616,-1.553 0.879,0 1.54,0.697 1.54,1.553 0,0.879 -0.661,1.583 -1.54,1.583 m -9.137,0.61 -4.137,-1.531 4.198,-1.919 4.342,1.453 -4.403,1.997 z m -7.299,-6.179 c -0.568,-0.417 -0.377,-0.87 -0.377,-0.87 1.445,-1.513 1.571,-2.381 1.571,-2.381 -1.251,-0.965 -4.315,-0.716 -4.315,-0.716 0.509,-2.128 1.926,-3.575 1.926,-3.575 -4.358,-2.039 -4.24,-6.492 -4.24,-6.492 0,-8.031 7.553,-7.904 7.553,-7.904 -0.475,1.576 -0.171,3.063 0.062,3.701 0.242,0.592 0.747,1.245 1.684,4.118 0.909,2.842 0.277,5.613 0.277,5.613 3.221,0.901 4.64,2.75 4.64,2.75 -1.833,1.283 -1.833,2.588 -1.833,2.588 1.548,0.754 3.582,0.35 3.582,0.35 -0.144,1.975 -2.245,2.206 -2.245,2.206 -2.604,0.343 -4.578,-1.972 -4.578,-1.972 -0.084,3.143 -3.074,2.967 -3.707,2.584 M 277.782,30.34 c 1.605,-0.542 1.415,-2.333 1.415,-2.333 -0.345,-2.094 -2.533,-1.796 -2.533,-1.796 1.388,-1.627 0.286,-2.893 0.286,-2.893 -1.072,-1.342 -2.766,-0.479 -2.766,-0.479 0.772,-1.721 -0.249,-2.584 -0.249,-2.584 -1.36,-1.195 -2.768,0.041 -2.768,0.041 -0.042,-1.68 -1.253,-2.061 -1.253,-2.061 -1.435,-0.622 -2.479,0.668 -2.479,0.668 -1.046,-2.885 -3.106,-1.406 -3.594,-1.204 -0.491,0.283 -0.536,0 -0.536,0 -0.094,-3.485 -3.065,-2.18 -3.065,-2.18 0.813,-1.74 -0.589,-2.72 -0.589,-2.72 -1.528,-0.942 -2.797,0.377 -2.797,0.377 -0.154,-2.3 -1.867,-1.616 -2.402,-1.415 -0.518,0.116 -1.634,0.157 -1.634,0.157 -3.519,-0.435 -4.813,-0.232 -4.813,-0.232 -4.286,-0.083 -7.889,7.014 -7.889,7.014 l 0,0.061 -0.062,-0.061 c 0,0 -3.659,-7.097 -7.927,-7.014 0,0 -1.309,-0.202 -4.813,0.232 0,0 -1.092,-0.041 -1.636,-0.157 -0.539,-0.202 -2.245,-0.886 -2.367,1.415 0,0 -1.282,-1.319 -2.81,-0.377 0,0 -1.402,0.98 -0.605,2.72 0,0 -2.972,-1.305 -3.068,2.18 0,0 -0.013,0.283 -0.544,0 -0.466,-0.202 -2.519,-1.681 -3.566,1.204 0,0 -1.066,-1.29 -2.48,-0.668 0,0 -1.231,0.381 -1.271,2.061 0,0 -1.424,-1.236 -2.789,-0.041 0,0 -1.031,0.863 -0.271,2.584 0,0 -1.656,-0.863 -2.697,0.479 0,0 -1.113,1.266 0.297,2.893 0,0 -2.258,-0.298 -2.576,1.796 0,0 -0.173,1.791 1.405,2.333 0,0 -1.85,0.864 -1.513,2.351 0,0 0.107,1.48 2.026,1.767 0,0 -1.601,1.065 -0.94,2.556 0,0 0.64,1.745 2.698,1.238 0,0 -0.771,1.789 0.42,2.599 0,0 1.129,0.961 2.517,0.013 0,0 0.729,-0.267 1.033,0.256 0,0 0.523,0.841 -0.585,2.075 0,0 5.982,-0.513 7.593,9.131 l 48.891,0 c 1.62,-9.644 7.676,-9.131 7.676,-9.131 -1.13,-1.234 -0.579,-2.075 -0.579,-2.075 0.273,-0.522 1.003,-0.256 1.003,-0.256 1.398,0.948 2.553,-0.013 2.553,-0.013 1.153,-0.81 0.393,-2.599 0.393,-2.599 2.082,0.507 2.744,-1.238 2.744,-1.238 0.588,-1.49 -0.984,-2.556 -0.984,-2.556 1.917,-0.287 2.004,-1.767 2.004,-1.767 0.333,-1.487 -1.504,-2.351 -1.504,-2.351 M 216.15,57.62 c 0.104,1.139 0.135,2.184 0.135,2.184 l 47.518,0 c 0,0 0.039,-0.992 0.135,-2.045 0.108,-1.141 0.23,-2.055 0.23,-2.055 l -48.256,0 c 0,0 0.152,0.963 0.238,1.916 m 21.238,-47.401 c 0,0 -1.527,-0.03 -2.532,0.467 0,0 3.547,0.949 5.261,5.056 1.727,-4.107 5.254,-5.056 5.254,-5.056 -0.941,-0.498 -2.536,-0.467 -2.536,-0.467 -0.155,-0.54 -0.756,-0.959 -0.756,-0.959 0.47,-0.562 1.396,-1.175 1.396,-1.175 l -3.358,-7.973 -3.344,7.973 c 0,0 0.916,0.613 1.376,1.175 -0.001,-10e-4 -0.617,0.419 -0.761,0.959"
       id="path12"
       style="fill:#5054a4;fill-opacity:1"
       inkscape:connector-curvature="0" />
  </g>
</svg>
